<svg width="366" height="366" viewBox="0 0 366 366" fill="none" xmlns="http://www.w3.org/2000/svg">
<path d="M293.122 69.2252L291.541 66.612C278.233 44.6886 254.209 31.476 228.823 33.0791C225.557 33.2791 222.31 33.722 219.11 34.404C196.052 39.3377 175.987 56.7739 167.672 79.1072C162.782 92.2393 161.413 107.362 152.132 117.786C140.054 131.357 119.55 131.782 101.514 131.218C83.4773 130.655 62.952 131.16 50.9472 144.782C43.4149 153.31 40.992 165.432 41.6288 176.866C43.2392 207.112 64.3208 234.159 91.1194 247.599C117.918 261.038 149.482 262.239 178.813 256.332C219.907 248.046 258.989 225.302 282.479 190.159C305.969 155.016 311.913 107.15 293.122 69.2252Z" fill="#F5F5F5"/>
<path d="M354.815 333.792C354.815 333.902 277.223 333.982 181.543 333.982C85.8636 333.982 8.25696 333.894 8.25696 333.792C8.25696 333.69 85.849 333.602 181.543 333.602C277.238 333.602 354.815 333.682 354.815 333.792Z" fill="#263238"/>
<path d="M126.277 98.0367H77.2333C73.8391 98.0367 70.5838 99.3846 68.183 101.784C65.7823 104.183 64.4326 107.438 64.4306 110.832V135.039C64.4277 136.725 64.7577 138.395 65.4016 139.952C66.0456 141.51 66.9908 142.925 68.183 144.117C69.3752 145.308 70.791 146.253 72.3491 146.896C73.9072 147.539 75.577 147.868 77.2626 147.864H113.716L120.011 158.302L125.904 147.864H126.277C127.961 147.865 129.628 147.534 131.183 146.889C132.738 146.245 134.151 145.3 135.34 144.109C136.529 142.917 137.472 141.503 138.114 139.947C138.755 138.39 139.084 136.723 139.08 135.039V110.832C139.08 109.151 138.749 107.487 138.105 105.934C137.462 104.381 136.519 102.97 135.33 101.782C134.141 100.594 132.729 99.6512 131.176 99.0086C129.623 98.366 127.958 98.0358 126.277 98.0367Z" fill="white"/>
<path d="M126.277 98.0367C126.277 98.0367 126.38 98.0367 126.577 98.0367H127.478C127.873 98.0367 128.356 98.1465 128.942 98.2417C129.605 98.3815 130.256 98.5724 130.889 98.8127C132.657 99.4773 134.255 100.528 135.566 101.887C136.393 102.751 137.102 103.721 137.675 104.771C138.307 105.968 138.747 107.258 138.978 108.592C139.187 110.081 139.258 111.585 139.19 113.087C139.19 114.653 139.19 116.293 139.19 117.998C139.19 121.417 139.19 125.113 139.19 129.052C139.19 131.004 139.19 133.036 139.19 135.149C139.159 137.333 138.583 139.474 137.514 141.378C136.95 142.362 136.267 143.272 135.479 144.087C134.663 144.909 133.742 145.621 132.741 146.202C131.721 146.805 130.619 147.256 129.469 147.542C128.884 147.695 128.29 147.807 127.69 147.879C127.09 147.93 126.475 147.966 125.875 147.966L126.021 147.879C124.169 151.18 122.178 154.701 120.165 158.324L120.011 158.588L119.858 158.332C117.859 155.03 115.729 151.502 113.555 147.893L113.709 147.981H77.1089C75.0474 147.948 73.0221 147.434 71.1943 146.481C69.4156 145.538 67.8802 144.195 66.709 142.557C65.5378 140.92 64.7629 139.033 64.4453 137.045L64.3355 136.313L64.2989 135.581C64.2989 135.091 64.2989 134.607 64.2989 134.117V131.24C64.2989 129.337 64.2989 127.449 64.2989 125.575V114.595C64.2989 113.702 64.2989 112.816 64.2989 111.937C64.283 111.056 64.3148 110.173 64.394 109.295C64.59 107.559 65.1406 105.882 66.0118 104.369C67.684 101.452 70.42 99.2958 73.6465 98.3515C74.0345 98.2563 74.4224 98.1392 74.8104 98.066L75.9889 97.8977C76.7795 97.8464 77.5627 97.8171 78.324 97.8318H82.8331H91.3097L116.93 97.8903H123.891H125.699C126.109 97.8903 126.314 97.8903 126.314 97.8903H125.699H123.891L116.93 97.9269L91.3097 97.9855H82.8331H77.1674L76.0182 98.0441L74.869 98.2124C74.4883 98.2856 74.137 98.4027 73.7344 98.4906C71.3498 99.1882 69.2238 100.573 67.6224 102.473C66.0209 104.373 65.0151 106.702 64.7308 109.17C64.6468 110.11 64.615 111.053 64.6356 111.996V114.653C64.6356 118.225 64.6356 121.885 64.6356 125.633C64.6356 127.507 64.6356 129.396 64.6356 131.299V134.176C64.6356 134.659 64.6356 135.142 64.6356 135.64V136.372L64.7454 137.104C65.0563 139.038 65.8135 140.873 66.957 142.464C68.1005 144.055 69.5989 145.357 71.3334 146.268C73.1049 147.193 75.0669 147.694 77.065 147.732H113.767L113.826 147.82L120.114 158.266H119.806C121.856 154.65 123.847 151.129 125.706 147.827L125.758 147.747H125.904C126.512 147.747 127.097 147.747 127.683 147.666C128.266 147.598 128.843 147.488 129.41 147.337C130.534 147.063 131.612 146.627 132.609 146.041C133.586 145.473 134.484 144.779 135.281 143.977C136.052 143.185 136.721 142.3 137.272 141.342C138.322 139.484 138.888 137.393 138.919 135.259C138.919 133.173 138.919 131.138 138.919 129.169C138.919 125.231 138.919 121.534 138.919 118.115C138.919 116.41 138.919 114.77 138.919 113.204C138.991 111.715 138.928 110.223 138.729 108.746C138.319 106.248 137.157 103.934 135.398 102.114C134.112 100.755 132.539 99.6992 130.794 99.0249C130.168 98.7845 129.528 98.5864 128.876 98.432C128.305 98.3369 127.822 98.249 127.412 98.2051L126.519 98.1465L126.277 98.0367Z" fill="#263238"/>
<path d="M128.832 111.183C128.832 111.293 116.71 111.374 101.748 111.374C86.7859 111.374 74.664 111.293 74.664 111.183C74.664 111.074 86.7859 110.993 101.748 110.993C116.71 110.993 128.832 111.081 128.832 111.183Z" fill="#263238"/>
<path d="M128.832 117.061C128.832 117.164 116.71 117.252 101.748 117.252C86.7859 117.252 74.664 117.164 74.664 117.061C74.664 116.959 86.7859 116.871 101.748 116.871C116.71 116.871 128.832 116.952 128.832 117.061Z" fill="#263238"/>
<path d="M128.832 122.932C128.832 123.042 116.71 123.122 101.748 123.122C86.7859 123.122 74.664 123.042 74.664 122.932C74.664 122.822 86.7859 122.742 101.748 122.742C116.71 122.742 128.832 122.83 128.832 122.932Z" fill="#263238"/>
<path d="M128.832 128.832C128.832 128.934 116.71 129.022 101.748 129.022C86.7859 129.022 74.664 128.934 74.664 128.832C74.664 128.729 86.7859 128.642 101.748 128.642C116.71 128.642 128.832 128.707 128.832 128.832Z" fill="#263238"/>
<path d="M128.832 134.688C128.832 134.798 116.71 134.886 101.748 134.886C86.7859 134.886 74.664 134.798 74.664 134.688C74.664 134.578 86.7859 134.498 101.748 134.498C116.71 134.498 128.832 134.578 128.832 134.688Z" fill="#263238"/>
<path d="M164.473 51.3278H109.156C106.598 51.3278 104.145 52.3432 102.336 54.1509C100.527 55.9587 99.51 58.4107 99.5081 60.9682V80.4248C99.5081 82.9835 100.525 85.4375 102.334 87.2468C104.143 89.0561 106.597 90.0725 109.156 90.0725H148.764L155.06 100.511L160.916 90.0725H164.436C166.995 90.0725 169.449 89.0561 171.258 87.2468C173.068 85.4375 174.084 82.9835 174.084 80.4248V60.9682C174.082 58.4171 173.07 55.9705 171.269 54.1638C169.468 52.3572 167.024 51.3374 164.473 51.3278Z" fill="white"/>
<path d="M164.473 51.3278C164.473 51.3278 164.802 51.3278 165.447 51.3278C166.396 51.4219 167.327 51.6485 168.214 52.0012C169.629 52.5984 170.883 53.5213 171.874 54.695C172.527 55.4488 173.069 56.2918 173.484 57.1984C173.909 58.2277 174.157 59.3217 174.216 60.4339C174.282 65.0967 174.26 70.7478 174.282 77.2699C174.282 78.0751 174.282 78.9022 174.282 79.744C174.303 80.6044 174.242 81.4648 174.099 82.3134C173.757 84.0918 172.925 85.7396 171.698 87.0714C171.059 87.7708 170.319 88.3703 169.502 88.8501C168.68 89.3541 167.783 89.7247 166.845 89.9481C166.363 90.0676 165.874 90.1532 165.381 90.2043C164.89 90.2043 164.393 90.2629 163.917 90.2556H160.945L161.084 90.175L155.228 100.621L155.082 100.877L154.928 100.628C152.929 97.3194 150.807 93.7984 148.618 90.1897L148.779 90.2775H109.441C107.515 90.3336 105.614 89.8247 103.973 88.8135C102.355 87.815 101.065 86.3645 100.262 84.6411C99.5019 82.9422 99.1797 81.0799 99.3251 79.2243V68.5444C99.3251 66.8023 99.3251 65.0943 99.3251 63.4204C99.3251 62.564 99.3251 61.7222 99.3251 60.8804C99.3359 60.0286 99.4589 59.182 99.6911 58.3623C100.144 56.7471 101.001 55.2735 102.18 54.0801C103.344 52.9374 104.765 52.0891 106.323 51.606C107.088 51.3833 107.877 51.253 108.673 51.218C109.463 51.1741 110.217 51.218 110.986 51.218H115.495H131.928L155.733 51.2839H162.204H163.887C164.268 51.2839 164.458 51.2839 164.458 51.2839H163.887H162.204H155.733L131.928 51.3424H115.495H110.986C109.452 51.2455 107.912 51.3813 106.418 51.745C104.919 52.26 103.567 53.1318 102.48 54.2851C101.343 55.4384 100.517 56.8614 100.079 58.4209C99.6106 59.9874 99.7423 61.6783 99.7277 63.3838V68.5078C99.7277 71.9873 99.7277 75.535 99.7277 79.1511C99.6929 80.0483 99.7321 80.9468 99.8448 81.8376C99.977 82.7281 100.241 83.594 100.628 84.4069C101.406 86.0611 102.647 87.4545 104.2 88.4182C105.778 89.4072 107.609 89.9159 109.471 89.8822H148.896L148.947 89.9701L155.184 100.423H154.884L160.784 89.9847L160.835 89.9042H163.902C164.4 89.9042 164.876 89.9042 165.366 89.8603C165.837 89.8131 166.305 89.7323 166.764 89.6187C167.672 89.4043 168.539 89.0459 169.334 88.5573C170.121 88.0959 170.834 87.5184 171.449 86.8444C172.645 85.5532 173.456 83.9534 173.791 82.2255C173.936 81.3968 173.998 80.5557 173.974 79.7148C173.974 78.873 173.974 78.0458 173.974 77.2406C173.974 70.7404 174.026 65.0748 173.974 60.4046C173.91 59.3121 173.663 58.2381 173.242 57.2277C172.856 56.3459 172.351 55.5209 171.742 54.7755C170.764 53.6032 169.523 52.68 168.118 52.0818C166.958 51.6151 165.723 51.3598 164.473 51.3278Z" fill="#263238"/>
<path d="M165.432 64.965C165.432 65.0675 153.31 65.1553 138.348 65.1553C123.386 65.1553 111.264 65.0675 111.264 64.965C111.264 64.8625 123.386 64.7747 138.348 64.7747C153.31 64.7747 165.432 64.8625 165.432 64.965Z" fill="#263238"/>
<path d="M165.432 70.8356C165.432 70.9454 153.31 71.0259 138.348 71.0259C123.386 71.0259 111.264 70.9454 111.264 70.8356C111.264 70.7258 123.386 70.6453 138.348 70.6453C153.31 70.6453 165.432 70.7331 165.432 70.8356Z" fill="#263238"/>
<path d="M165.432 76.7135C165.432 76.816 153.31 76.9038 138.348 76.9038C123.386 76.9038 111.264 76.816 111.264 76.7135C111.264 76.611 123.386 76.5232 138.348 76.5232C153.31 76.5232 165.432 76.611 165.432 76.7135Z" fill="#263238"/>
<path d="M282.552 206.365C281.857 205.538 280.949 204.784 280.722 203.723C280.495 202.662 281 201.688 281.22 200.671C281.482 199.237 281.234 197.758 280.519 196.488C279.803 195.219 278.666 194.241 277.304 193.724C275.722 193.182 273.695 193.138 272.912 191.667C272.128 190.196 273.124 188.527 273.709 186.997C274.184 185.72 274.373 184.354 274.264 182.996C274.156 181.638 273.751 180.32 273.08 179.135C272.891 178.595 272.669 178.066 272.414 177.554C271.424 175.574 269.92 173.897 268.059 172.699C266.198 171.502 264.048 170.827 261.836 170.746C261.493 169.14 260.696 167.665 259.54 166.497C258.384 165.33 256.917 164.518 255.314 164.158C255.323 162.97 255.052 161.797 254.524 160.733C252.979 157.724 249.693 155.901 246.355 155.36C243.928 154.988 241.449 155.197 239.119 155.969C236.789 156.742 234.675 158.056 232.952 159.803C231.107 161.699 229.614 164.195 227.096 165.044C224.9 165.776 222.469 165.117 220.164 165.417C217.075 165.82 214.425 168.016 212.844 170.695C211.263 173.374 210.604 176.507 210.238 179.604C209.901 182.444 209.681 185.562 207.712 187.656C205.743 189.749 202.749 190.108 200.392 191.542C195.898 194.251 194.441 200.949 197.406 205.275C198.35 206.658 199.712 207.925 199.821 209.594C199.917 211.116 198.936 212.47 198.475 213.927C197.289 217.675 200.356 222.133 204.279 222.36C206.263 222.469 208.386 221.701 210.135 222.587C211.885 223.472 212.558 225.595 213.685 227.213C214.85 228.776 216.516 229.89 218.404 230.37C220.293 230.85 222.289 230.666 224.058 229.848C225.522 229.116 226.898 227.952 228.516 228.062C230.133 228.172 231.407 229.526 232.996 229.855C235.082 230.258 237.058 228.728 238.295 227.008C239.532 225.288 240.396 223.253 241.955 221.84C244.027 219.995 246.94 219.541 249.568 218.634C253.346 217.305 256.683 214.957 259.209 211.848L258.952 226.488C261.148 226.488 262.393 225.756 263.198 224.607C263.65 224.916 264.143 225.162 264.662 225.339C265.955 225.738 267.338 225.736 268.63 225.332C269.921 224.928 271.059 224.142 271.894 223.077C272.736 221.95 273.263 220.508 274.456 219.776C275.503 219.132 276.813 219.183 278.021 218.963C279.355 218.72 280.602 218.131 281.636 217.255C282.671 216.378 283.457 215.246 283.916 213.97C284.375 212.694 284.49 211.32 284.251 209.985C284.012 208.651 283.426 207.402 282.552 206.365Z" fill="#263238"/>
<path d="M233.464 172.188C230.434 174.099 223.553 182.51 223.421 184.984L224.153 235.294C224.036 239.079 223.421 242.329 225.617 245.403C231.751 252.723 245.945 253.623 249.187 247.599C249.406 247.215 249.58 246.807 249.707 246.384C249.825 245.977 249.92 245.564 249.993 245.147C250.528 242.391 250.774 239.587 250.725 236.78C251.149 231.861 251.296 229.841 251.296 229.892C251.296 229.943 261.807 228.933 264.962 215.552C266.536 208.891 267.012 197.823 267.114 188.754C267.07 186.971 266.705 185.21 266.038 183.556C262.137 173.118 253.162 168.053 242.38 168.975C239.649 169.202 235.514 170.41 233.464 172.188Z" fill="#FFBF9D"/>
<path d="M251.618 207.661C251.618 207.559 252.796 207.442 254.692 207.339C255.175 207.339 255.636 207.266 255.739 206.944C255.823 206.446 255.749 205.933 255.527 205.48C255.161 204.294 254.795 203.042 254.385 201.739C252.804 196.418 251.706 192.055 251.918 191.996C252.13 191.938 253.587 196.198 255.161 201.512C255.541 202.825 255.902 204.077 256.244 205.267C256.499 205.865 256.538 206.533 256.354 207.156C256.272 207.32 256.153 207.464 256.007 207.575C255.861 207.687 255.692 207.764 255.512 207.8C255.242 207.856 254.966 207.873 254.692 207.851C252.796 207.888 251.618 207.771 251.618 207.661Z" fill="#263238"/>
<path d="M251.266 229.885C244.889 229.505 238.741 227.364 233.508 223.699C233.508 223.699 237.373 233.413 251.025 233.149L251.266 229.885Z" fill="#FF9A6C"/>
<path d="M250.49 212.112C250.165 211.641 249.726 211.26 249.214 211.004C248.703 210.748 248.134 210.625 247.562 210.648C247.149 210.656 246.741 210.748 246.364 210.918C245.986 211.088 245.647 211.332 245.366 211.636C245.096 211.926 244.92 212.292 244.864 212.684C244.808 213.077 244.873 213.478 245.052 213.832C245.327 214.189 245.702 214.456 246.13 214.599C246.557 214.742 247.018 214.756 247.453 214.637C248.36 214.391 249.209 213.965 249.949 213.385C250.17 213.25 250.366 213.077 250.527 212.873C250.603 212.775 250.648 212.656 250.655 212.532C250.663 212.408 250.634 212.285 250.571 212.178" fill="#FF9A6C"/>
<path d="M246.018 208.547C246.325 208.547 246.179 210.582 247.811 212.156C249.444 213.729 251.618 213.656 251.61 213.942C251.61 214.073 251.098 214.3 250.146 214.256C248.956 214.189 247.827 213.701 246.962 212.88C246.134 212.089 245.644 211.009 245.593 209.864C245.615 209.015 245.879 208.525 246.018 208.547Z" fill="#263238"/>
<path d="M245.681 188.227C245.454 188.724 243.61 188.344 241.399 188.446C239.188 188.549 237.366 189.01 237.109 188.534C236.992 188.307 237.336 187.853 238.09 187.414C239.089 186.882 240.197 186.584 241.328 186.543C242.459 186.503 243.585 186.72 244.62 187.18C245.403 187.56 245.776 187.992 245.681 188.227Z" fill="#263238"/>
<path d="M264.318 188.219C263.893 188.614 262.393 188.065 260.548 187.904C258.703 187.743 257.115 187.941 256.786 187.465C256.647 187.238 256.925 186.836 257.635 186.484C258.613 186.05 259.69 185.888 260.753 186.016C261.808 186.103 262.82 186.475 263.681 187.092C264.325 187.575 264.508 188.029 264.318 188.219Z" fill="#263238"/>
<path d="M226.144 202.471C226.217 201.468 225.229 199.002 224.241 198.775C221.613 198.16 216.804 198.043 216.255 204.77C215.523 214 224.929 212.822 224.973 212.58C225.017 212.339 225.895 205.956 226.144 202.471Z" fill="#FFBF9D"/>
<path d="M222.433 208.862C222.396 208.825 222.264 208.957 221.979 209.059C221.585 209.193 221.154 209.167 220.779 208.986C219.827 208.554 219.132 206.936 219.227 205.267C219.267 204.475 219.484 203.702 219.864 203.006C219.971 202.723 220.145 202.471 220.373 202.272C220.6 202.073 220.872 201.933 221.166 201.864C221.356 201.829 221.551 201.862 221.718 201.957C221.886 202.052 222.014 202.203 222.081 202.383C222.184 202.654 222.081 202.83 222.162 202.852C222.243 202.874 222.367 202.713 222.33 202.325C222.292 202.092 222.179 201.879 222.008 201.717C221.77 201.504 221.457 201.394 221.137 201.41C220.753 201.455 220.386 201.598 220.073 201.825C219.759 202.052 219.508 202.355 219.344 202.705C218.896 203.474 218.645 204.342 218.612 205.231C218.517 207.097 219.344 208.891 220.632 209.411C220.871 209.496 221.125 209.529 221.378 209.508C221.63 209.487 221.875 209.411 222.096 209.286C222.396 209.081 222.462 208.876 222.433 208.862Z" fill="#FF9A6C"/>
<path d="M222.44 184.984C222.44 184.523 222.272 185.416 222.44 184.984V184.984Z" fill="#455A64"/>
<path d="M260.277 172.02C256.844 169.707 254.019 167.035 245.637 167.021C239.159 167.021 234.416 170.783 229.314 175.234C222.726 180.95 218.605 190.276 221.364 198.526L224.124 199.602L226.737 193.27C231.246 183.461 240.645 175.212 250.747 174.728C251.679 174.679 252.613 174.694 253.543 174.772C260.233 175.446 267.092 187.626 267.092 187.626C267.092 187.626 268.329 177.452 260.277 172.02Z" fill="#C53F3F"/>
<path d="M224.131 199.565C224.278 201.476 224.57 203.225 224.717 205.121C224.783 205.934 224.988 206.922 225.763 207.141C226.054 207.192 226.353 207.148 226.616 207.017C226.88 206.885 227.094 206.672 227.227 206.409C227.486 205.89 227.626 205.32 227.637 204.74C228.208 198.936 228.691 194.492 229.262 188.702C227.571 191.052 225.859 195.056 224.131 199.565Z" fill="#263238"/>
<path d="M222.601 214.117C222.601 214.117 222.652 214.3 222.535 214.601C222.345 215.028 221.999 215.368 221.569 215.552C220.936 215.832 220.218 215.85 219.571 215.603C219.17 215.464 218.805 215.238 218.502 214.94C218.2 214.643 217.967 214.282 217.821 213.883C217.687 213.483 217.638 213.059 217.678 212.639C217.719 212.219 217.847 211.813 218.055 211.446C218.411 210.853 218.975 210.415 219.637 210.216C220.069 210.076 220.531 210.05 220.976 210.143C221.291 210.216 221.437 210.304 221.43 210.326C220.858 210.246 220.275 210.296 219.724 210.472C219.149 210.677 218.665 211.083 218.363 211.614C218.187 211.94 218.08 212.298 218.049 212.667C218.017 213.036 218.062 213.408 218.18 213.759C218.308 214.105 218.509 214.419 218.769 214.681C219.029 214.942 219.342 215.144 219.688 215.274C220.257 215.497 220.89 215.497 221.459 215.274C221.844 215.141 222.174 214.883 222.396 214.542C222.528 214.286 222.565 214.11 222.601 214.117Z" fill="#E0E0E0"/>
<path d="M242.058 177.049C242.058 177.049 249.378 179.062 251.83 178.293C253.468 177.795 254.88 176.738 255.819 175.307C255.819 175.307 250.154 172.803 242.058 177.049Z" fill="#263238"/>
<path d="M282.552 195.788C282.828 195.496 283.085 195.185 283.321 194.858C283.924 193.918 284.197 192.802 284.097 191.689C284 190.855 283.729 190.051 283.3 189.329C282.871 188.607 282.294 187.985 281.608 187.502C279.854 186.283 277.724 185.725 275.598 185.928H275.276L275.415 185.635C276.24 184.069 276.82 182.385 277.135 180.643C277.367 179.237 277.269 177.796 276.85 176.434C276.427 175.175 275.667 174.056 274.654 173.199C272.892 171.769 270.732 170.92 268.468 170.768C266.938 170.658 265.4 170.702 263.879 170.9L262.627 171.061C262.483 171.091 262.335 171.104 262.188 171.098C262.327 171.043 262.472 171.004 262.62 170.981C262.898 170.922 263.352 170.841 263.857 170.754C265.387 170.494 266.941 170.41 268.49 170.505C270.825 170.614 273.063 171.465 274.881 172.935C275.951 173.826 276.755 174.997 277.201 176.317C277.65 177.736 277.755 179.241 277.509 180.709C277.189 182.497 276.596 184.225 275.752 185.833L275.569 185.562C277.787 185.357 280.005 185.954 281.82 187.246C282.53 187.756 283.123 188.411 283.56 189.168C283.997 189.926 284.267 190.768 284.353 191.638C284.436 192.796 284.116 193.947 283.445 194.895C283.213 195.252 282.909 195.556 282.552 195.788Z" fill="#263238"/>
<path d="M206.783 211.358H206.585H205.999C205.48 211.358 204.718 211.284 203.745 211.175C202.554 211.047 201.382 210.779 200.253 210.377C198.736 209.837 197.405 208.874 196.418 207.603C195.347 205.963 194.855 204.013 195.019 202.061C195.069 200.993 195.174 199.927 195.334 198.87C195.457 197.737 195.69 196.619 196.03 195.532C196.399 194.362 197.126 193.338 198.108 192.604C199.163 191.828 200.539 191.784 201.768 191.799C202.998 191.813 204.338 191.85 205.355 191.118C205.842 190.711 206.238 190.207 206.519 189.639C206.8 189.071 206.96 188.45 206.988 187.817C207.041 186.507 206.992 185.195 206.841 183.893C206.773 182.6 206.827 181.304 207.002 180.021C207.322 177.592 208.083 175.243 209.25 173.089C210.296 171.133 211.704 169.394 213.4 167.965C214.88 166.727 216.571 165.764 218.392 165.125C221.018 164.15 223.856 163.897 226.613 164.393C227.627 164.566 228.612 164.879 229.541 165.322L229.35 165.271L228.794 165.081C228.076 164.846 227.342 164.665 226.598 164.539C223.873 164.096 221.079 164.373 218.495 165.344C216.711 165.993 215.055 166.952 213.605 168.177C211.955 169.594 210.585 171.307 209.564 173.228C208.423 175.349 207.679 177.661 207.368 180.05C207.199 181.309 207.148 182.581 207.215 183.849C207.363 185.171 207.412 186.502 207.361 187.831C207.33 188.518 207.154 189.191 206.847 189.807C206.539 190.422 206.106 190.966 205.575 191.403C205.011 191.784 204.363 192.021 203.686 192.091C203.044 192.154 202.399 192.174 201.754 192.15C200.578 191.941 199.367 192.185 198.363 192.833C197.36 193.481 196.638 194.484 196.344 195.642C196.007 196.707 195.774 197.803 195.649 198.914C195.484 199.959 195.374 201.012 195.32 202.069C195.147 203.954 195.606 205.844 196.623 207.441C197.569 208.684 198.852 209.629 200.319 210.165C201.427 210.582 202.579 210.869 203.752 211.021C204.718 211.153 205.472 211.219 205.985 211.27L206.57 211.328C206.642 211.326 206.714 211.336 206.783 211.358Z" fill="#263238"/>
<path d="M230.229 175.248C230.058 175.543 229.86 175.82 229.636 176.075C229.438 176.324 229.189 176.639 228.904 177.02C228.618 177.4 228.318 177.817 228.003 178.308C227.25 179.444 226.56 180.622 225.939 181.836C225.189 183.324 224.538 184.859 223.992 186.433C223.469 188.017 223.051 189.633 222.74 191.272C222.493 192.61 222.324 193.962 222.235 195.32C222.184 195.905 222.184 196.432 222.162 196.893C222.14 197.355 222.162 197.757 222.162 198.079C222.196 198.418 222.196 198.758 222.162 199.097C222.093 198.764 222.054 198.426 222.045 198.087C222.045 197.757 221.994 197.355 221.994 196.893C221.994 196.432 221.994 195.898 221.994 195.312C222.047 193.935 222.191 192.564 222.426 191.206C222.718 189.545 223.131 187.909 223.663 186.309C224.216 184.719 224.881 183.171 225.654 181.675C226.293 180.457 227.015 179.283 227.813 178.162C228.135 177.671 228.479 177.261 228.765 176.895C229.003 176.576 229.26 176.27 229.533 175.98C229.739 175.713 229.972 175.467 230.229 175.248Z" fill="#263238"/>
<path d="M237.615 171.749C237.343 172.055 237.046 172.339 236.729 172.598C236.429 172.854 236.07 173.177 235.675 173.579C235.279 173.982 234.804 174.399 234.328 174.919C233.182 176.104 232.105 177.353 231.1 178.659C229.883 180.267 228.77 181.952 227.769 183.703C226.789 185.466 225.921 187.29 225.171 189.163C224.57 190.7 224.057 192.269 223.633 193.863C223.428 194.536 223.311 195.166 223.179 195.707C223.048 196.249 222.953 196.725 222.879 197.113C222.82 197.519 222.732 197.92 222.616 198.313C222.619 197.903 222.66 197.494 222.74 197.091C222.784 196.696 222.857 196.213 222.967 195.664C223.077 195.115 223.187 194.478 223.37 193.797C223.759 192.182 224.248 190.593 224.834 189.039C226.285 185.229 228.301 181.658 230.814 178.447C231.841 177.139 232.948 175.898 234.13 174.728C234.621 174.216 235.111 173.799 235.521 173.418C235.931 173.037 236.312 172.73 236.619 172.481C236.931 172.211 237.264 171.966 237.615 171.749Z" fill="#263238"/>
<path d="M211.731 215.208C211.731 215.208 211.672 215.267 211.533 215.354C211.336 215.492 211.125 215.61 210.904 215.706C210.061 216.1 209.14 216.298 208.21 216.284C206.724 216.282 205.274 215.827 204.052 214.981C202.458 213.809 201.358 212.083 200.971 210.143C200.724 209.029 200.687 207.88 200.861 206.753C201.057 205.531 201.476 204.355 202.098 203.284C202.755 202.137 203.596 201.106 204.587 200.231C205.649 199.328 206.814 198.551 208.056 197.918C209.345 197.295 210.524 196.466 211.548 195.466C212.548 194.361 213.26 193.026 213.62 191.579C214.002 190.072 214.22 188.528 214.271 186.975C214.352 185.394 214.344 183.769 214.505 182.129C214.621 180.495 214.992 178.89 215.603 177.371C216.217 175.882 217.259 174.608 218.597 173.711C219.893 172.888 221.311 172.275 222.799 171.896C224.263 171.486 225.654 171.164 226.993 170.754C228.299 170.388 229.536 169.809 230.653 169.041C230.916 168.856 231.161 168.648 231.385 168.419C231.622 168.201 231.845 167.969 232.051 167.723C232.442 167.225 232.797 166.699 233.113 166.149C233.677 165.061 234.36 164.037 235.148 163.097C235.934 162.264 236.88 161.6 237.929 161.142C239.505 160.427 241.27 160.239 242.962 160.605C244.654 160.972 246.182 161.874 247.321 163.177C247.941 163.865 248.436 164.655 248.785 165.512C248.915 165.806 249.013 166.113 249.078 166.427C249.078 166.427 248.975 166.113 248.712 165.542C248.336 164.706 247.824 163.94 247.196 163.273C246.208 162.215 244.962 161.433 243.58 161.003C241.739 160.466 239.766 160.603 238.017 161.391C237.009 161.842 236.101 162.489 235.345 163.295C234.582 164.227 233.919 165.238 233.369 166.31C233.048 166.875 232.686 167.416 232.286 167.928C232.074 168.188 231.844 168.433 231.597 168.66C231.358 168.902 231.096 169.121 230.814 169.312C229.664 170.107 228.39 170.708 227.044 171.09C225.683 171.522 224.263 171.822 222.843 172.247C221.394 172.619 220.014 173.217 218.751 174.018C217.471 174.881 216.475 176.104 215.889 177.532C215.295 179.014 214.937 180.58 214.827 182.173C214.666 183.791 214.674 185.401 214.593 186.997C214.537 188.578 214.311 190.148 213.92 191.681C213.542 193.185 212.801 194.573 211.76 195.722C210.703 196.744 209.49 197.592 208.166 198.233C206.942 198.847 205.794 199.604 204.748 200.487C203.785 201.328 202.962 202.316 202.31 203.415C201.702 204.451 201.29 205.59 201.095 206.775C200.919 207.866 200.946 208.981 201.176 210.062C201.532 211.945 202.576 213.627 204.104 214.783C205.283 215.624 206.689 216.088 208.137 216.116C209.051 216.141 209.96 215.968 210.801 215.611C211.453 215.413 211.716 215.208 211.731 215.208Z" fill="#455A64"/>
<path d="M262.188 198.994C262.194 199.469 262.014 199.927 261.688 200.272C261.361 200.616 260.913 200.82 260.438 200.839C260.206 200.859 259.972 200.832 259.75 200.76C259.528 200.688 259.323 200.572 259.147 200.419C258.971 200.266 258.827 200.079 258.725 199.869C258.622 199.66 258.563 199.432 258.55 199.199C258.546 198.724 258.727 198.265 259.054 197.921C259.382 197.577 259.831 197.374 260.307 197.355C260.538 197.336 260.772 197.363 260.993 197.436C261.213 197.509 261.418 197.625 261.593 197.778C261.768 197.93 261.911 198.117 262.013 198.326C262.116 198.535 262.175 198.762 262.188 198.994Z" fill="#263238"/>
<path d="M263.732 193.431C263.505 193.673 262.122 192.655 260.16 192.662C258.198 192.67 256.764 193.658 256.544 193.394C256.442 193.285 256.668 192.86 257.276 192.399C258.125 191.809 259.134 191.495 260.167 191.499C261.187 191.494 262.182 191.815 263.008 192.414C263.637 192.897 263.842 193.329 263.732 193.431Z" fill="#263238"/>
<path d="M245.22 198.994C245.226 199.47 245.046 199.93 244.717 200.274C244.389 200.619 243.939 200.822 243.463 200.839C243.231 200.858 242.998 200.83 242.777 200.757C242.556 200.685 242.352 200.569 242.177 200.416C242.001 200.263 241.858 200.077 241.756 199.868C241.654 199.659 241.595 199.431 241.582 199.199C241.576 198.724 241.755 198.266 242.082 197.921C242.409 197.577 242.857 197.374 243.331 197.355C243.564 197.335 243.798 197.362 244.02 197.434C244.241 197.506 244.447 197.622 244.623 197.775C244.799 197.928 244.942 198.114 245.045 198.324C245.148 198.533 245.207 198.761 245.22 198.994Z" fill="#263238"/>
<path d="M245.147 193.431C244.92 193.673 243.536 192.655 241.575 192.662C239.613 192.67 238.178 193.658 237.966 193.394C237.863 193.285 238.09 192.86 238.698 192.399C239.547 191.811 240.556 191.496 241.589 191.499C242.611 191.495 243.608 191.815 244.437 192.414C245.052 192.897 245.257 193.329 245.147 193.431Z" fill="#263238"/>
<path d="M278.446 254.86C269.976 244.547 262.649 243.083 262.649 243.083L262.7 279.866L289.711 314.028L300.691 285.912C300.691 285.912 284.184 261.844 278.446 254.86Z" fill="#C53F3F"/>
<path d="M250.651 240.169L262.759 243.097C262.759 243.097 269.01 279.353 266.741 288.73C264.816 296.709 258.623 333.528 258.623 333.528H183.959L208.986 261.69C208.986 261.69 209.132 245.893 205.267 238.595C207.61 238.032 215.515 236.575 222.345 235.294C222.345 235.294 226.883 240.96 237.571 242.614C248.258 244.268 250.651 240.169 250.651 240.169Z" fill="#C53F3F"/>
<path d="M265.474 270.54H218.575C214.476 294.52 204.492 303.721 186.894 317.608L183.966 333.543H258.63L262.964 308.501L262.707 299.286L265.474 270.54Z" fill="#455A64"/>
<path d="M207.068 238.244C207.068 238.244 189.237 239.672 182.832 268.893C179.904 282.113 176.244 297.602 175.226 308.011C174.494 315.565 177.166 326.004 184.42 327.731L197.64 329.4C203.533 329.488 207.573 324.708 208.81 319.577L210.816 311.437C212.236 301.467 204.645 300.603 200.378 300.691L209.762 263.579L211.585 245.615L207.068 238.244Z" fill="#C53F3F"/>
<path d="M268 263.095C268.037 263.23 268.064 263.367 268.08 263.505L268.256 264.684C268.256 264.94 268.337 265.226 268.38 265.533C268.424 265.84 268.446 266.192 268.483 266.558C268.556 267.29 268.651 268.117 268.688 269.047C268.815 271.211 268.83 273.381 268.732 275.547C268.594 278.199 268.32 280.843 267.912 283.467C267.502 286.256 266.99 288.898 266.448 291.292C265.906 293.686 265.409 295.816 264.984 297.617C264.559 299.417 264.157 300.852 263.886 301.848C263.754 302.331 263.644 302.711 263.564 302.997C263.537 303.134 263.493 303.267 263.432 303.392C263.451 303.254 263.478 303.117 263.513 302.982L263.776 301.826L264.794 297.565C265.211 295.765 265.716 293.627 266.214 291.234C266.712 288.84 267.231 286.212 267.634 283.423C268.036 280.634 268.366 277.97 268.446 275.532C268.527 273.095 268.571 270.899 268.446 269.054C268.446 268.132 268.351 267.297 268.293 266.572C268.293 266.206 268.234 265.84 268.212 265.548C268.19 265.255 268.139 264.955 268.11 264.699C268.058 264.208 268.014 263.813 267.985 263.513C267.975 263.373 267.98 263.234 268 263.095Z" fill="#263238"/>
<path d="M186.309 310.946C186.327 310.698 186.374 310.452 186.448 310.214C186.623 309.557 186.853 308.915 187.136 308.296C188.073 306.222 189.534 304.427 191.376 303.09C193.218 301.752 195.377 300.918 197.64 300.669C198.315 300.59 198.996 300.568 199.675 300.603C199.921 300.606 200.167 300.636 200.407 300.691C200.407 300.757 199.338 300.625 197.647 300.867C195.443 301.172 193.348 302.018 191.548 303.328C189.749 304.638 188.301 306.373 187.333 308.377C186.948 309.215 186.606 310.073 186.309 310.946Z" fill="#263238"/>
<path d="M190.43 296.387C190.573 296.362 190.719 296.362 190.862 296.387C191.255 296.375 191.649 296.392 192.04 296.438C193.334 296.569 194.601 296.887 195.803 297.382C197.003 297.88 198.127 298.546 199.141 299.359C199.45 299.603 199.744 299.867 200.019 300.149C200.127 300.245 200.221 300.356 200.297 300.479C200.261 300.515 199.814 300.098 199.024 299.52C196.958 297.998 194.55 297.008 192.011 296.636C191.052 296.46 190.43 296.46 190.43 296.387Z" fill="#263238"/>
<path d="M208.898 258.55C208.856 258.291 208.841 258.028 208.854 257.767C208.854 257.261 208.818 256.537 208.759 255.644C208.438 250.982 207.16 246.437 205.004 242.292C204.594 241.501 204.235 240.865 203.979 240.433C203.831 240.218 203.708 239.987 203.613 239.745C203.786 239.94 203.94 240.151 204.074 240.374C204.36 240.791 204.74 241.414 205.18 242.197C207.457 246.337 208.749 250.945 208.957 255.666C208.993 256.566 208.993 257.291 208.957 257.796C208.958 258.048 208.939 258.3 208.898 258.55Z" fill="#263238"/>
<g opacity="0.3">
<path opacity="0.3" d="M267.18 287.632C271.733 279.924 271.828 269.91 267.861 261.895C269.137 270.443 268.862 279.152 267.048 287.603" fill="black"/>
</g>
<path d="M205.465 326.187C205.465 326.187 205.158 326.56 204.492 327.109C203.522 327.848 202.411 328.379 201.227 328.668C199.472 329.105 197.659 329.266 195.854 329.144C193.819 328.997 191.572 328.756 189.266 328.412C187.069 328.136 184.904 327.645 182.802 326.948C181.925 326.563 181.123 326.028 180.431 325.367C179.816 324.793 179.26 324.16 178.769 323.478C178.053 322.49 177.442 321.43 176.946 320.316C176.778 319.913 176.646 319.584 176.566 319.394C176.53 319.281 176.48 319.173 176.419 319.072C176.437 319.189 176.466 319.304 176.507 319.416C176.573 319.635 176.69 319.95 176.844 320.36C177.308 321.485 177.9 322.554 178.608 323.544C179.093 324.247 179.65 324.897 180.27 325.484C180.975 326.176 181.798 326.736 182.7 327.138C184.815 327.871 187.001 328.384 189.222 328.668C191.572 329.019 193.819 329.246 195.869 329.4C197.701 329.51 199.54 329.327 201.315 328.858C202.514 328.543 203.633 327.974 204.594 327.189C204.861 326.97 205.106 326.724 205.326 326.457C205.382 326.372 205.429 326.282 205.465 326.187Z" fill="#263238"/>
<path d="M208.415 267.861C208.335 267.861 206.453 275.144 204.213 284.17C201.973 293.195 200.209 300.53 200.29 300.545C200.37 300.559 202.244 293.269 204.492 284.236C206.739 275.203 208.488 267.912 208.415 267.861Z" fill="#263238"/>
<path d="M210.684 309.072C210.736 308.876 210.765 308.675 210.772 308.472C210.833 307.92 210.845 307.364 210.809 306.811C210.746 305.988 210.471 305.196 210.011 304.512C209.747 304.098 209.44 303.713 209.096 303.363C208.715 302.996 208.29 302.679 207.829 302.418C206.209 301.559 204.45 300.991 202.632 300.742C202.087 300.658 201.537 300.61 200.985 300.596C200.784 300.563 200.579 300.563 200.378 300.596C200.378 300.64 201.241 300.676 202.574 300.918C204.345 301.228 206.058 301.808 207.654 302.638C208.096 302.884 208.504 303.187 208.869 303.538C209.202 303.872 209.501 304.237 209.762 304.629C210.214 305.281 210.496 306.036 210.582 306.825C210.631 307.368 210.649 307.913 210.633 308.458C210.626 308.664 210.643 308.87 210.684 309.072Z" fill="#263238"/>
<path d="M246.721 308.062L246.56 308.143L246.721 308.062Z" fill="#FFBF9D"/>
<path d="M246.823 308.011L246.757 308.048L246.823 308.011Z" fill="#FFBF9D"/>
<path d="M263.579 323.405C262.151 320.697 250.959 313.552 250.959 313.552L253.989 312.82L257.335 314.24C257.594 315.377 258.093 316.445 258.799 317.373C260.028 319.123 262.115 317.307 262.115 317.307L260.702 310.536L254.114 306.554C254.114 306.554 247.892 307.506 246.882 307.982L244.232 310.412C243.068 311.327 239.701 314.928 238.786 315.038C237.871 315.148 208.979 308.648 208.979 308.648C205.019 311.781 202.932 318.01 202.303 322.505C202.303 322.505 201.571 324.701 202.361 325.916L237.827 328.697L245.337 330.769C247.348 331.603 249.409 332.311 251.508 332.892C254.011 333.419 255.695 332.613 255.761 331.23C255.827 329.847 253.887 329.693 253.887 329.693C252.23 329.097 250.616 328.388 249.056 327.57C247.919 326.808 246.984 325.78 246.333 324.576L249.012 324.898C249.012 324.898 254.707 328.851 256.844 330.022C258.982 331.193 259.406 329.056 259.582 328.405C259.758 327.753 253.126 321.348 253.126 321.348C253.126 321.348 259.37 325.198 260.497 326.172C261.624 327.145 263.286 327.431 263.644 326.779C264.003 326.128 264.984 326.113 263.579 323.405Z" fill="#FFBF9D"/>
<path d="M232.776 324.027C232.754 323.882 232.754 323.734 232.776 323.588C232.772 323.416 232.784 323.245 232.813 323.076C232.83 322.848 232.869 322.622 232.93 322.402C233.284 321.122 233.902 319.93 234.745 318.903C235.563 317.87 236.48 316.918 237.483 316.063C237.875 315.686 238.307 315.352 238.771 315.068C238.403 315.466 238.015 315.844 237.607 316.202C236.652 317.087 235.766 318.044 234.957 319.064C234.135 320.066 233.51 321.213 233.113 322.446C232.776 323.398 232.82 324.027 232.776 324.027Z" fill="#FF9A6C"/>
<path d="M250.703 313.34C250.063 313.476 249.398 313.417 248.792 313.172C248.16 313.005 247.593 312.65 247.167 312.154C247.211 312.088 247.899 312.601 248.873 312.923C249.846 313.245 250.703 313.296 250.703 313.34Z" fill="#FF9A6C"/>
<path d="M252.54 320.755C251.562 320.493 250.607 320.151 249.685 319.73C248.735 319.385 247.817 318.959 246.94 318.457C247.919 318.71 248.872 319.053 249.788 319.481C250.739 319.829 251.659 320.255 252.54 320.755Z" fill="#FF9A6C"/>
<path d="M246.56 324.547C246.053 324.43 245.562 324.256 245.096 324.027C244.599 323.883 244.123 323.679 243.675 323.42C244.201 323.431 244.718 323.556 245.191 323.786C245.697 323.936 246.165 324.196 246.56 324.547Z" fill="#FF9A6C"/>
<path d="M251.64 321.253C251.234 321.53 250.863 321.855 250.534 322.219C250.272 322.632 250.058 323.074 249.898 323.537C249.898 323.537 249.832 323.361 249.898 323.076C249.963 322.705 250.117 322.356 250.344 322.057C250.572 321.758 250.868 321.517 251.208 321.355C251.449 321.238 251.632 321.224 251.64 321.253Z" fill="#FF9A6C"/>
<path d="M254.267 317.11C254.304 317.183 253.814 317.446 253.492 318.01C253.329 318.373 253.192 318.748 253.082 319.13C253.005 318.923 252.982 318.7 253.014 318.481C253.046 318.262 253.132 318.055 253.265 317.878C253.638 317.234 254.253 317.044 254.267 317.11Z" fill="#FF9A6C"/>
<path d="M253.374 309.716C253.374 309.716 253.243 309.607 253.162 309.365C253.079 309.041 253.079 308.701 253.162 308.377C253.24 308.051 253.405 307.753 253.638 307.513C253.814 307.33 253.96 307.264 253.982 307.294C253.747 307.652 253.558 308.038 253.418 308.443C253.35 308.864 253.336 309.292 253.374 309.716Z" fill="#FF9A6C"/>
<path d="M202.032 326.955C202.065 326.686 202.08 326.414 202.076 326.143C202.076 325.879 202.076 325.564 202.113 325.191C202.149 324.818 202.149 324.393 202.2 323.932C202.41 321.506 202.932 319.117 203.752 316.824C204.215 315.563 204.775 314.339 205.429 313.164C205.758 312.645 206.043 312.132 206.365 311.7L206.819 311.049L207.28 310.478C208.452 309.014 209.359 308.282 209.315 308.238C209.087 308.388 208.874 308.559 208.679 308.75C208.433 308.955 208.201 309.175 207.983 309.409C207.667 309.713 207.366 310.033 207.083 310.368L206.614 310.939C206.453 311.144 206.3 311.364 206.139 311.583C205.794 312.022 205.502 312.542 205.165 313.047C204.49 314.217 203.915 315.441 203.445 316.707C202.62 319.022 202.128 321.442 201.981 323.895C201.937 324.364 201.944 324.788 201.93 325.162C201.915 325.535 201.93 325.857 201.93 326.121C201.934 326.402 201.969 326.681 202.032 326.955Z" fill="#263238"/>
<g opacity="0.3">
<path opacity="0.3" d="M226.561 275.481V276.447L221.166 276.799L218.429 255.073C218.429 255.073 217.272 247.753 216.518 245.096C215.764 242.438 212.565 237.131 212.565 237.131L214.937 236.685L219.6 244.21L226.561 275.481Z" fill="black"/>
</g>
<path d="M227.271 275.452C227.271 275.452 224.878 255.27 222.616 247.211C220.354 239.152 216.84 236.282 216.84 236.282L213.363 236.934C213.363 236.934 216.826 241.143 218.158 248.565C219.49 255.988 222.001 275.693 222.001 275.693L227.271 275.452Z" fill="#455A64"/>
<path d="M227.271 275.452H226.942L225.946 275.518L222.008 275.752H221.928V275.671C221.423 272.011 220.654 266.47 219.732 259.706C219.234 256.317 218.714 252.613 218.026 248.726C217.679 246.726 217.135 244.764 216.401 242.87C215.661 240.894 214.677 239.018 213.473 237.285L213.268 237.022L213.078 236.765L213.378 236.714L216.855 236.055H216.95L217.009 236.114C218.054 237.112 218.949 238.256 219.666 239.51C220.374 240.704 220.991 241.95 221.511 243.236C222.471 245.657 223.206 248.161 223.707 250.717C224.702 255.563 225.346 259.941 225.903 263.601C226.459 267.261 226.788 270.189 227.03 272.26C227.147 273.263 227.227 274.046 227.293 274.61C227.293 274.859 227.337 275.064 227.352 275.217C227.367 275.371 227.352 275.43 227.352 275.43C227.331 275.36 227.316 275.289 227.308 275.217C227.308 275.064 227.249 274.866 227.213 274.617C227.132 274.061 227.023 273.278 226.883 272.282C226.598 270.247 226.195 267.297 225.639 263.637C225.083 259.977 224.395 255.585 223.384 250.783C222.879 248.252 222.144 245.773 221.188 243.375C220.673 242.111 220.061 240.887 219.358 239.715C218.658 238.5 217.791 237.388 216.782 236.414L216.943 236.451L213.466 237.11L213.576 236.802L213.795 237.08C215.029 238.838 216.038 240.744 216.796 242.753C217.532 244.667 218.081 246.648 218.436 248.668C219.11 252.584 219.622 256.281 220.09 259.648C221.027 266.433 221.715 271.989 222.155 275.635L222.067 275.561L225.961 275.43H226.979L227.271 275.452Z" fill="#263238"/>
<path d="M262.649 243.083C262.649 243.083 263.454 265.138 260.694 276.447L255.424 276.279C255.424 276.279 259.34 248.851 258.821 242.014C260.167 242.034 261.486 242.403 262.649 243.083Z" fill="#455A64"/>
<path d="M262.649 243.083C262.649 243.083 262.356 242.9 261.727 242.643C260.79 242.291 259.799 242.105 258.799 242.094L258.879 242.007C259.077 245.088 258.703 249.905 258.147 255.819C257.591 261.734 256.683 268.776 255.614 276.315L255.431 276.096H255.571L260.694 276.264L260.504 276.411C261.421 272.107 261.996 267.738 262.224 263.344C262.481 259.333 262.576 255.739 262.62 252.738C262.664 249.736 262.656 247.321 262.62 245.667C262.62 244.854 262.62 244.203 262.62 243.756C262.62 243.31 262.62 243.105 262.62 243.09C262.659 243.31 262.679 243.533 262.678 243.756C262.678 244.217 262.722 244.854 262.751 245.659C262.803 247.321 262.854 249.736 262.847 252.738C262.839 255.739 262.766 259.326 262.524 263.366C262.324 267.782 261.764 272.174 260.848 276.498L260.812 276.645H260.658L255.534 276.476H255.19V276.264C256.244 268.739 257.13 261.712 257.774 255.805C258.418 249.898 258.821 245.088 258.696 242.029V241.941H258.784C259.791 241.971 260.784 242.187 261.712 242.578C261.948 242.682 262.175 242.805 262.393 242.944L262.649 243.083Z" fill="#263238"/>
<path d="M257.152 273.248C257.153 273.559 257.247 273.863 257.42 274.121C257.594 274.379 257.84 274.579 258.128 274.697C258.416 274.815 258.732 274.845 259.037 274.784C259.342 274.722 259.621 274.572 259.841 274.351C260.06 274.131 260.209 273.85 260.269 273.545C260.33 273.24 260.298 272.924 260.179 272.637C260.059 272.35 259.858 272.105 259.599 271.932C259.34 271.759 259.036 271.667 258.725 271.667C258.518 271.667 258.313 271.708 258.121 271.788C257.93 271.867 257.756 271.984 257.61 272.131C257.464 272.278 257.348 272.452 257.269 272.644C257.191 272.836 257.151 273.041 257.152 273.248Z" fill="#E0E0E0"/>
<path d="M258.725 274.844C258.41 274.844 258.101 274.751 257.839 274.575C257.576 274.4 257.372 274.151 257.251 273.859C257.13 273.567 257.099 273.247 257.16 272.937C257.222 272.627 257.374 272.343 257.597 272.12C257.82 271.897 258.105 271.745 258.414 271.683C258.724 271.622 259.044 271.653 259.336 271.774C259.628 271.895 259.877 272.099 260.052 272.362C260.228 272.624 260.321 272.933 260.321 273.248C260.319 273.671 260.15 274.076 259.852 274.375C259.553 274.673 259.148 274.842 258.725 274.844ZM258.725 271.689C258.417 271.689 258.116 271.781 257.859 271.952C257.603 272.123 257.403 272.367 257.285 272.652C257.167 272.937 257.136 273.25 257.196 273.553C257.256 273.855 257.405 274.133 257.623 274.351C257.841 274.569 258.119 274.717 258.421 274.778C258.724 274.838 259.037 274.807 259.322 274.689C259.607 274.571 259.85 274.371 260.022 274.115C260.193 273.858 260.285 273.557 260.285 273.248C260.285 272.835 260.12 272.438 259.828 272.146C259.536 271.853 259.139 271.689 258.725 271.689Z" fill="#263238"/>
<path d="M224.27 274.295C225.139 274.295 225.844 273.59 225.844 272.721C225.844 271.852 225.139 271.147 224.27 271.147C223.401 271.147 222.696 271.852 222.696 272.721C222.696 273.59 223.401 274.295 224.27 274.295Z" fill="#E0E0E0"/>
<path d="M224.27 274.317C223.955 274.317 223.646 274.223 223.384 274.048C223.121 273.873 222.917 273.624 222.796 273.332C222.675 273.04 222.643 272.719 222.705 272.41C222.767 272.1 222.919 271.816 223.142 271.593C223.365 271.37 223.649 271.218 223.959 271.156C224.268 271.095 224.589 271.126 224.881 271.247C225.172 271.368 225.422 271.572 225.597 271.835C225.772 272.097 225.866 272.406 225.866 272.721C225.864 273.144 225.695 273.549 225.396 273.847C225.098 274.146 224.693 274.315 224.27 274.317ZM224.27 271.162C223.962 271.162 223.66 271.254 223.404 271.425C223.148 271.596 222.948 271.84 222.83 272.125C222.712 272.409 222.681 272.723 222.741 273.025C222.801 273.328 222.95 273.606 223.168 273.824C223.386 274.042 223.664 274.19 223.966 274.25C224.268 274.311 224.582 274.28 224.867 274.162C225.152 274.044 225.395 273.844 225.567 273.587C225.738 273.331 225.829 273.03 225.829 272.721C225.829 272.308 225.665 271.911 225.373 271.619C225.08 271.326 224.684 271.162 224.27 271.162Z" fill="#263238"/>
<path d="M255.754 289.396C255.762 289.477 255.762 289.557 255.754 289.638V290.37C255.754 290.992 255.754 291.907 255.636 293.086C255.542 294.525 255.296 295.95 254.904 297.338C254.332 299.175 253.385 300.872 252.123 302.323C249.48 305.683 244.7 308.26 239.122 308.97C237.689 309.136 236.241 309.156 234.804 309.028C233.281 308.922 231.791 308.533 230.412 307.879C227.553 306.445 225.225 304.137 223.765 301.291C222.34 298.452 221.568 295.331 221.503 292.156C221.463 291.395 221.463 290.633 221.503 289.872C221.536 289.48 221.635 289.096 221.796 288.737C221.972 288.362 222.276 288.061 222.652 287.888C223.366 287.685 224.113 287.63 224.848 287.727L226.971 287.815L241.802 288.423L251.793 288.862L254.509 289.008L255.241 289.052C255.321 289.04 255.403 289.04 255.483 289.052H254.531L251.808 288.986L241.809 288.664L226.979 288.13L224.863 288.057C224.173 287.964 223.471 288.011 222.799 288.196C222.504 288.364 222.261 288.61 222.097 288.907C221.933 289.204 221.854 289.54 221.869 289.879C221.829 290.623 221.829 291.368 221.869 292.112C221.924 295.23 222.674 298.296 224.065 301.086C225.484 303.867 227.75 306.126 230.536 307.535C231.867 308.17 233.304 308.552 234.774 308.662C236.185 308.787 237.605 308.773 239.013 308.619C244.517 307.93 249.224 305.427 251.852 302.148C253.099 300.727 254.045 299.069 254.634 297.273C255.041 295.9 255.309 294.49 255.431 293.064C255.541 291.892 255.585 290.977 255.622 290.355C255.622 290.062 255.622 289.828 255.658 289.623C255.682 289.545 255.714 289.469 255.754 289.396Z" fill="#263238"/>
<g opacity="0.3">
<path opacity="0.3" d="M214.835 309.943C215.022 308.609 214.93 307.25 214.563 305.953C214.196 304.656 213.563 303.45 212.705 302.411C211.832 301.348 210.752 300.475 209.529 299.846C208.307 299.216 206.969 298.844 205.597 298.751C205.291 289.509 205.969 280.261 207.617 271.162L200.297 300.442C200.297 300.442 210.487 300.581 210.684 309.072L214.835 309.943Z" fill="black"/>
</g>
<g opacity="0.3">
<path opacity="0.3" d="M222.616 198.46C223.392 192.442 225.484 186.669 228.743 181.551C229.101 180.987 229.475 180.277 229.145 179.699C228.977 179.475 228.735 179.317 228.463 179.251C228.191 179.186 227.904 179.217 227.652 179.34C227.149 179.61 226.729 180.013 226.437 180.504C224.654 183.059 223.404 185.947 222.761 188.995C222.118 192.044 222.096 195.19 222.696 198.248" fill="black"/>
</g>
<path d="M349.12 282.823L338.77 333.66H248.88C248.404 333.66 247.948 333.471 247.612 333.135C247.276 332.799 247.087 332.343 247.087 331.867C247.086 331.631 247.131 331.397 247.221 331.179C247.311 330.961 247.443 330.763 247.61 330.597C247.776 330.43 247.974 330.298 248.193 330.208C248.411 330.118 248.644 330.073 248.88 330.074H266.975L276.579 282.786C276.666 282.347 276.903 281.951 277.248 281.666C277.594 281.381 278.027 281.223 278.475 281.22L347.18 280.488C347.471 280.486 347.758 280.548 348.021 280.671C348.285 280.793 348.518 280.973 348.703 281.196C348.889 281.419 349.022 281.681 349.094 281.963C349.167 282.244 349.175 282.538 349.12 282.823Z" fill="#E0E0E0"/>
<path d="M349.12 282.823C349.123 282.772 349.123 282.72 349.12 282.669C349.14 282.516 349.14 282.361 349.12 282.208C349.085 281.907 348.98 281.619 348.815 281.365C348.65 281.111 348.429 280.898 348.168 280.744C347.986 280.632 347.785 280.553 347.576 280.51C347.335 280.463 347.088 280.448 346.844 280.466H345.226L341.178 280.502L315.207 280.751L297.097 280.927L286.951 281.037L281.63 281.088H278.907C278.68 281.088 278.46 281.088 278.211 281.088C277.849 281.131 277.503 281.268 277.21 281.485C276.916 281.702 276.683 281.991 276.535 282.325C276.444 282.549 276.381 282.782 276.345 283.021L276.206 283.701C276.11 284.155 276.023 284.616 275.927 285.077C275.737 285.992 275.554 286.922 275.364 287.852C274.983 289.711 274.6 291.597 274.215 293.51C273.439 297.326 272.643 301.23 271.828 305.222C270.21 313.194 268.527 321.48 266.785 330.022L266.909 329.927H249.18C248.936 329.912 248.69 329.924 248.448 329.964C247.969 330.068 247.548 330.351 247.27 330.754C247.118 330.977 247.015 331.229 246.966 331.493C246.917 331.758 246.925 332.03 246.987 332.292C247.05 332.554 247.167 332.8 247.33 333.014C247.493 333.228 247.7 333.406 247.936 333.536C248.196 333.673 248.484 333.751 248.778 333.763H296.533H338.74H338.813V333.69C341.983 318.061 344.552 305.346 346.338 296.541L348.432 286.373C348.666 285.216 348.842 284.331 348.959 283.723C349.076 283.116 349.127 282.823 349.127 282.823L348.93 283.723L348.381 286.366C347.898 288.693 347.195 292.112 346.287 296.511C344.479 305.295 341.895 318.025 338.682 333.646L338.777 333.565H296.57H248.821C248.566 333.554 248.316 333.486 248.089 333.367C247.883 333.255 247.703 333.101 247.56 332.914C247.418 332.728 247.316 332.513 247.261 332.285C247.207 332.056 247.201 331.819 247.244 331.588C247.287 331.357 247.378 331.138 247.511 330.945C247.754 330.595 248.12 330.352 248.536 330.264C248.751 330.225 248.97 330.213 249.187 330.227H267.085V330.132L272.121 305.325C272.926 301.342 273.717 297.438 274.493 293.613C274.878 291.7 275.261 289.813 275.642 287.954C275.825 287.025 276.015 286.095 276.198 285.18C276.293 284.719 276.389 284.258 276.476 283.804L276.615 283.123C276.652 282.901 276.711 282.682 276.791 282.472C276.967 282.066 277.281 281.737 277.677 281.542C277.872 281.446 278.083 281.387 278.299 281.366C278.504 281.366 278.746 281.366 278.973 281.366H281.688L287.01 281.308L297.192 281.088L315.302 280.876L341.273 280.554L345.321 280.502H346.939C347.171 280.492 347.404 280.504 347.634 280.539C347.837 280.585 348.032 280.661 348.212 280.766C348.473 280.92 348.694 281.133 348.859 281.387C349.024 281.641 349.129 281.929 349.164 282.23C349.173 282.429 349.158 282.628 349.12 282.823Z" fill="#263238"/>
<path d="M307.703 306.086C307.695 306.676 307.862 307.255 308.183 307.75C308.505 308.244 308.966 308.632 309.509 308.863C310.052 309.095 310.651 309.16 311.231 309.049C311.81 308.939 312.344 308.659 312.763 308.244C313.183 307.83 313.47 307.3 313.588 306.721C313.705 306.143 313.648 305.543 313.423 304.998C313.198 304.452 312.816 303.986 312.326 303.658C311.835 303.331 311.258 303.156 310.668 303.158C309.888 303.158 309.14 303.465 308.585 304.013C308.03 304.561 307.713 305.306 307.703 306.086Z" fill="white"/>
<path d="M349.04 283.233H344.325L331.472 283.299L289.074 283.599L282.94 283.65H281.432C281.175 283.642 280.917 283.659 280.663 283.701C280.403 283.753 280.155 283.852 279.931 283.994C279.483 284.277 279.159 284.719 279.024 285.231C278.907 285.729 278.826 286.197 278.724 286.695C277.992 290.524 277.26 294.22 276.528 297.741L272.868 316.444C271.828 321.758 270.979 326.069 270.393 329.056C270.115 330.52 269.888 331.691 269.735 332.482C269.669 332.87 269.61 333.17 269.574 333.375C269.537 333.58 269.522 333.682 269.522 333.682C269.522 333.682 269.522 333.58 269.596 333.382L269.786 332.496C269.947 331.706 270.189 330.549 270.518 329.071C271.125 326.091 271.982 321.787 273.073 316.473C274.163 311.159 275.408 304.819 276.82 297.785C277.552 294.264 278.284 290.575 279.016 286.746C279.112 286.271 279.207 285.773 279.309 285.282C279.4 284.941 279.586 284.633 279.845 284.393C280.104 284.154 280.426 283.992 280.773 283.928C281.015 283.89 281.26 283.876 281.505 283.884H283.013L289.147 283.84L331.545 283.467L344.399 283.328L347.89 283.277H348.805L349.04 283.233Z" fill="#263238"/>
<path d="M203.159 148.42C204.426 149.182 205.932 149.444 207.382 149.156C208.832 148.867 210.123 148.049 211.002 146.86C211.881 145.671 212.285 144.197 212.135 142.726C211.986 141.255 211.294 139.892 210.194 138.904C211.402 138.429 212.43 137.585 213.132 136.492C213.833 135.399 214.173 134.112 214.101 132.816C214.03 131.519 213.552 130.278 212.735 129.268C211.918 128.259 210.803 127.532 209.55 127.192C210.017 126.007 210.171 124.721 209.995 123.458C209.82 122.196 209.322 121.001 208.549 119.988C207.775 118.974 206.754 118.178 205.583 117.676C204.412 117.173 203.13 116.982 201.864 117.12C201.034 115.459 199.672 114.125 197.995 113.329C196.318 112.533 194.422 112.321 192.611 112.728C191.572 112.012 190.331 111.648 189.069 111.688C187.808 111.728 186.592 112.17 185.6 112.95C184.608 113.73 183.892 114.807 183.556 116.024C183.22 117.24 183.281 118.532 183.732 119.711" fill="#263238"/>
<path d="M203.598 149.533C205.736 143.566 205.546 137.013 203.067 131.179C200.589 125.346 196.003 120.661 190.225 118.057L189.039 117.523C175.863 112.479 164.232 120.853 159.554 134.154L139.058 179.999L149.628 213.986L165.425 197.15L173.103 188.27C173.103 188.27 186.279 191.93 192.018 179.655C194.793 173.704 199.485 161.04 203.598 149.533Z" fill="#AE7461"/>
<path d="M173.228 188.27C167.494 185.693 162.623 181.52 159.195 176.251C159.195 176.251 157.907 186.44 170.717 190.891L173.228 188.27Z" fill="#6F4439"/>
<path d="M195.305 159.291C195.102 159.752 194.727 160.116 194.259 160.305C193.791 160.494 193.268 160.492 192.801 160.301C192.569 160.218 192.356 160.089 192.174 159.922C191.992 159.755 191.846 159.553 191.743 159.329C191.641 159.104 191.585 158.861 191.578 158.615C191.571 158.368 191.614 158.122 191.703 157.892C191.908 157.432 192.283 157.069 192.751 156.88C193.218 156.692 193.74 156.693 194.207 156.882C194.439 156.966 194.651 157.095 194.833 157.262C195.014 157.43 195.16 157.631 195.262 157.856C195.364 158.08 195.421 158.322 195.428 158.569C195.436 158.815 195.394 159.061 195.305 159.291Z" fill="#263238"/>
<path d="M198.226 154.371C197.903 154.503 197.018 152.907 195.122 152.066C193.226 151.224 191.403 151.531 191.301 151.209C191.25 151.063 191.66 150.748 192.465 150.58C193.542 150.382 194.655 150.522 195.649 150.982C196.634 151.425 197.454 152.168 197.991 153.105C198.372 153.815 198.372 154.32 198.226 154.371Z" fill="#263238"/>
<path d="M177.876 151.853C177.673 152.313 177.299 152.676 176.833 152.865C176.367 153.053 175.846 153.053 175.38 152.864C175.148 152.781 174.934 152.653 174.752 152.487C174.57 152.321 174.424 152.12 174.321 151.896C174.218 151.673 174.16 151.43 174.153 151.184C174.145 150.938 174.186 150.693 174.275 150.463C174.479 150.002 174.854 149.639 175.321 149.449C175.788 149.259 176.31 149.258 176.778 149.445C177.01 149.528 177.224 149.657 177.406 149.824C177.587 149.991 177.734 150.193 177.836 150.417C177.939 150.642 177.995 150.885 178.002 151.131C178.009 151.378 177.966 151.624 177.876 151.853Z" fill="#263238"/>
<path d="M179.435 146.319C179.113 146.451 178.227 144.855 176.331 144.014C174.436 143.172 172.613 143.487 172.51 143.157C172.459 143.011 172.869 142.696 173.674 142.528C174.752 142.33 175.864 142.47 176.859 142.93C177.844 143.373 178.663 144.116 179.201 145.053C179.582 145.763 179.589 146.268 179.435 146.319Z" fill="#263238"/>
<path d="M179.977 163.478C179.977 163.368 181.287 163.697 183.3 164.312C183.813 164.48 184.31 164.59 184.545 164.312C184.809 163.829 184.921 163.278 184.867 162.731C184.94 161.355 185.018 159.913 185.101 158.405C185.474 152.256 185.987 147.293 186.235 147.315C186.484 147.337 186.375 152.322 185.994 158.471C185.884 159.979 185.789 161.399 185.694 162.797C185.732 163.518 185.517 164.23 185.086 164.81C184.939 164.948 184.762 165.05 184.569 165.11C184.377 165.169 184.173 165.184 183.974 165.154C183.671 165.107 183.375 165.021 183.095 164.898C181.126 164.122 179.933 163.595 179.977 163.478Z" fill="#263238"/>
<path d="M182.919 140.127C182.458 140.493 181.068 139.241 179.098 138.275C177.129 137.309 175.292 136.877 175.336 136.298C175.336 136.028 175.914 135.749 176.8 135.691C177.94 135.648 179.072 135.901 180.087 136.423C181.097 136.923 181.958 137.68 182.583 138.619C183.051 139.358 183.139 139.951 182.919 140.127Z" fill="#263238"/>
<path d="M201.483 147.769C200.89 148.018 199.529 146.861 197.655 145.997C195.781 145.134 194.053 144.716 193.892 144.102C193.826 143.809 194.273 143.494 195.151 143.37C196.345 143.304 197.535 143.556 198.599 144.102C199.675 144.597 200.598 145.373 201.271 146.349C201.739 147.132 201.754 147.637 201.483 147.769Z" fill="#263238"/>
<path d="M156.121 147.059C156.311 146.6 156.406 146.107 156.4 145.61C156.394 145.113 156.286 144.622 156.084 144.168C155.882 143.714 155.59 143.306 155.225 142.968C154.86 142.631 154.43 142.372 153.962 142.206C151.561 141.386 148.413 141.54 146.422 146.356C142.886 154.913 152.205 156.699 152.322 156.458C152.439 156.216 154.672 150.653 156.121 147.059Z" fill="#AE7461"/>
<path d="M151.788 152.468C151.788 152.468 151.597 152.512 151.297 152.527C150.879 152.529 150.476 152.372 150.17 152.088C149.438 151.356 149.24 149.635 149.833 148.076C150.113 147.332 150.558 146.661 151.136 146.115C151.325 145.879 151.568 145.694 151.845 145.576C152.122 145.457 152.424 145.408 152.724 145.434C152.913 145.452 153.089 145.535 153.222 145.668C153.356 145.802 153.439 145.978 153.456 146.166C153.456 146.451 153.347 146.605 153.391 146.634C153.435 146.664 153.632 146.568 153.705 146.188C153.748 145.957 153.709 145.719 153.596 145.514C153.434 145.238 153.172 145.036 152.864 144.951C152.484 144.876 152.091 144.9 151.723 145.021C151.356 145.141 151.025 145.354 150.763 145.639C150.101 146.238 149.598 146.993 149.299 147.835C148.64 149.584 148.852 151.561 149.943 152.432C150.146 152.594 150.383 152.708 150.637 152.767C150.89 152.825 151.153 152.826 151.407 152.768C151.685 152.673 151.809 152.498 151.788 152.468Z" fill="#6F4439"/>
<path d="M204.506 128.832C204.531 128.589 204.531 128.343 204.506 128.1C204.35 127.195 203.988 126.337 203.447 125.595C202.906 124.852 202.202 124.244 201.388 123.818C200.657 122.899 199.857 122.037 198.994 121.241C198.873 119.875 198.404 118.563 197.634 117.429C196.863 116.295 195.815 115.377 194.59 114.761C193.365 114.145 192.003 113.852 190.633 113.91C189.263 113.968 187.931 114.375 186.762 115.092L185.65 114.792C185.037 113.692 184.179 112.747 183.142 112.03C182.106 111.314 180.919 110.844 179.673 110.659C178.427 110.474 177.155 110.577 175.955 110.961C174.755 111.345 173.659 112 172.752 112.874C171.843 112.138 170.739 111.685 169.575 111.571C168.411 111.457 167.239 111.687 166.205 112.232C165.171 112.778 164.319 113.615 163.756 114.64C163.193 115.665 162.944 116.833 163.038 117.998C161.128 118.181 159.151 119.104 158.332 120.831C157.512 122.559 158.332 124.755 160.008 125.274C157.892 129.176 156.18 134.132 154.496 138.45C153.31 141.466 156.282 144.921 155.631 147.037C152.329 157.863 158.229 153.72 169.07 133.129C169.356 133.063 169.648 132.982 169.956 132.887C170.578 132.69 170.915 132.228 171.508 131.95C172.101 131.672 172.972 132.17 173.652 132.558C174.84 133.21 176.216 133.434 177.549 133.191C178.882 132.948 180.091 132.254 180.972 131.226C181.177 132.441 182.656 133.056 183.9 132.873C185.145 132.69 186.184 131.972 187.304 131.453C188.424 130.933 189.808 130.655 190.854 131.313C191.433 131.679 191.85 132.316 192.501 132.543C193.658 132.946 194.778 131.892 195.429 130.867C195.986 130.011 196.586 129.008 197.479 128.612C198.299 128.583 199.117 128.702 199.895 128.964C200.297 129.205 200.678 129.483 201.058 129.696C201.243 129.81 201.437 129.911 201.637 129.996C201.861 130.201 202.071 130.421 202.266 130.655C205.194 134.139 204.945 143.326 204.945 143.326C207.434 138.568 206.614 133.29 204.506 128.832Z" fill="#263238"/>
<path d="M180.277 115.29C180.277 115.29 180.336 115.217 180.475 115.107C180.677 114.949 180.89 114.805 181.111 114.675C182.169 114.077 183.366 113.767 184.582 113.778C185.797 113.788 186.988 114.118 188.036 114.734C189.619 115.69 190.771 117.222 191.25 119.009L191.001 118.877C191.864 118.559 192.764 118.355 193.68 118.269C194.752 118.148 195.838 118.247 196.871 118.559C197.904 118.871 198.863 119.39 199.69 120.085C200.371 120.647 200.925 121.349 201.312 122.143C201.7 122.937 201.913 123.805 201.937 124.689C201.955 125.877 201.591 127.04 200.897 128.005C200.711 128.275 200.492 128.521 200.246 128.737C200.078 128.876 199.99 128.942 199.975 128.934C199.96 128.927 200.326 128.627 200.773 127.954C201.394 126.992 201.706 125.862 201.666 124.718C201.624 123.881 201.407 123.062 201.029 122.315C200.65 121.567 200.119 120.907 199.47 120.377C198.673 119.724 197.754 119.237 196.765 118.945C195.777 118.653 194.74 118.563 193.716 118.679C192.837 118.763 191.971 118.958 191.14 119.257L190.942 119.331L190.891 119.133C190.444 117.436 189.365 115.975 187.875 115.048C186.676 114.31 185.274 113.972 183.871 114.082C182.936 114.148 182.024 114.397 181.185 114.814C180.592 115.092 180.299 115.312 180.277 115.29Z" fill="white"/>
<path d="M161.772 117.969C161.772 117.969 161.816 117.969 161.904 117.881C161.992 117.793 162.131 117.757 162.321 117.676C162.878 117.454 163.47 117.33 164.07 117.31C165.018 117.284 165.957 117.487 166.808 117.903C167.951 118.436 168.872 119.349 169.414 120.487H169.151C169.812 119.69 170.634 119.043 171.564 118.587C172.494 118.132 173.51 117.878 174.545 117.845C175.71 117.771 176.877 117.92 177.986 118.284C179.148 118.683 180.237 119.271 181.207 120.026C183.002 121.465 184.511 123.228 185.657 125.223L185.379 125.187C186.891 123.748 188.892 122.937 190.979 122.917C192.61 122.912 194.202 123.41 195.539 124.345C196.414 124.949 197.16 125.72 197.735 126.614C197.884 126.849 198.016 127.093 198.13 127.346C198.211 127.522 198.248 127.617 198.233 127.617C198.218 127.617 198.043 127.273 197.633 126.673C197.04 125.827 196.296 125.1 195.437 124.528C194.127 123.652 192.583 123.195 191.008 123.218C189.01 123.253 187.098 124.037 185.65 125.414L185.489 125.567L185.372 125.377C184.231 123.427 182.743 121.702 180.98 120.29C180.044 119.557 178.996 118.981 177.876 118.584C176.813 118.231 175.693 118.082 174.575 118.145C173.587 118.172 172.616 118.406 171.724 118.832C170.833 119.258 170.041 119.867 169.399 120.619L169.246 120.817L169.143 120.59C168.639 119.506 167.779 118.627 166.706 118.101C165.893 117.683 164.992 117.465 164.078 117.464C163.285 117.488 162.503 117.659 161.772 117.969Z" fill="white"/>
<path d="M197.83 128.1C197.739 128.192 197.641 128.278 197.538 128.356C197.273 128.615 197.028 128.894 196.806 129.191C196.498 129.571 196.147 130.069 195.722 130.655C195.265 131.344 194.663 131.926 193.958 132.36C193.502 132.584 192.975 132.618 192.494 132.455C192.005 132.264 191.538 132.018 191.103 131.723C190.67 131.42 190.166 131.233 189.639 131.182C189.067 131.198 188.503 131.333 187.985 131.577C187.429 131.811 186.872 132.111 186.294 132.389C185.717 132.746 185.087 133.008 184.427 133.165C183.711 133.274 182.978 133.201 182.297 132.953C181.941 132.833 181.607 132.655 181.309 132.426C180.975 132.182 180.749 131.817 180.68 131.409L181.009 131.496C180.325 132.421 179.351 133.089 178.242 133.392C177.085 133.689 175.869 133.659 174.728 133.304C174.256 133.159 173.798 132.97 173.36 132.741C172.994 132.471 172.575 132.284 172.13 132.192C171.697 132.15 171.263 132.259 170.9 132.499C170.485 132.716 170.054 132.902 169.612 133.056C167.932 133.741 166.055 133.767 164.356 133.129C162.904 132.397 161.769 131.161 161.164 129.652C160.63 128.375 160.492 126.967 160.769 125.611L160.872 125.765C160.35 125.647 159.861 125.416 159.439 125.088C159.017 124.76 158.671 124.344 158.427 123.869C158.138 123.288 158.016 122.638 158.076 121.991C158.135 121.345 158.373 120.728 158.763 120.209C158.841 120.109 158.924 120.014 159.012 119.924L159.115 119.836C158.706 120.34 158.422 120.935 158.288 121.571C158.138 122.318 158.252 123.094 158.61 123.767C158.846 124.206 159.176 124.589 159.575 124.889C159.975 125.188 160.435 125.397 160.923 125.501H161.055V125.633C160.81 126.935 160.957 128.28 161.479 129.498C162.065 130.925 163.147 132.092 164.524 132.785C166.144 133.37 167.924 133.33 169.517 132.675C169.944 132.531 170.358 132.35 170.754 132.133C171.188 131.854 171.704 131.73 172.218 131.782C172.474 131.814 172.722 131.893 172.95 132.016L173.565 132.375C173.981 132.593 174.417 132.772 174.867 132.909C175.941 133.245 177.086 133.275 178.176 132.997C178.697 132.851 179.191 132.624 179.64 132.324C180.065 132.023 180.443 131.66 180.76 131.248L181.031 130.904L181.089 131.335C181.177 131.958 181.821 132.368 182.458 132.587C183.083 132.817 183.754 132.887 184.413 132.792C185.041 132.645 185.642 132.398 186.192 132.06C186.77 131.782 187.326 131.489 187.904 131.255C188.468 130.999 189.079 130.862 189.698 130.852C190.277 130.912 190.831 131.119 191.308 131.453C191.721 131.746 192.165 131.992 192.633 132.185C192.841 132.263 193.062 132.298 193.283 132.288C193.505 132.278 193.722 132.223 193.921 132.126C194.602 131.719 195.188 131.173 195.642 130.523C196.081 129.967 196.447 129.483 196.776 129.11C197.022 128.817 197.294 128.548 197.589 128.305C197.662 128.229 197.743 128.16 197.83 128.1Z" fill="#455A64"/>
<path d="M19.032 289.177C19.032 289.177 15.2549 299.249 13.908 301.957C12.5611 304.666 13.908 333.792 13.908 333.792H100.064L101.28 308.172L59.7971 283.16L19.032 289.177Z" fill="#263238"/>
<path d="M202.113 248.39L236.026 254.787C236.026 254.787 235.382 269.427 235.814 269.09C236.246 268.754 188.278 268.644 188.278 268.644L202.113 248.39Z" fill="#AE7461"/>
<path d="M235.426 254.736L258.93 261.99L269.259 269.244L278.453 279.185C278.453 279.185 278.35 281.945 274.873 280.202C272.385 278.836 270.085 277.153 268.029 275.195L274.873 287.764C274.873 287.764 272.114 290.524 269.866 286.541C267.619 282.559 264.252 277.428 264.252 277.428L262.21 275.898C262.21 275.898 264.355 279.675 264.355 280.7C264.355 281.725 262.21 287.449 262.21 287.449L258.828 292.068C258.548 292.041 258.277 291.958 258.03 291.825C257.783 291.691 257.565 291.509 257.389 291.291C257.213 291.072 257.083 290.82 257.006 290.55C256.928 290.28 256.906 289.997 256.939 289.718C257.057 288.395 257.535 287.129 258.323 286.058L254.231 289.638C254.231 289.638 252.804 288.818 254.026 286.161L255.563 284.528L256.068 281.974L254.846 280.027C254.846 280.027 251.676 280.232 249.224 276.557C246.772 272.882 242.987 273.629 237.673 270.423C232.359 267.217 232.871 263.776 232.871 263.776L235.426 254.736Z" fill="#AE7461"/>
<path d="M248.046 263.718C248.21 264.696 248.511 265.648 248.939 266.543C249.426 267.502 250.044 268.389 250.776 269.178C251.684 270.141 252.662 271.034 253.704 271.85C254.799 272.64 255.794 273.559 256.668 274.588C257.025 275.031 257.276 275.549 257.403 276.103C257.53 276.657 257.529 277.233 257.4 277.787C257.291 278.158 257.093 278.497 256.824 278.775C256.556 279.052 256.223 279.261 255.856 279.382C255.659 279.442 255.453 279.465 255.248 279.448C255.109 279.448 255.036 279.412 255.036 279.397C255.299 279.374 255.56 279.322 255.812 279.243C256.136 279.108 256.424 278.9 256.655 278.637C256.886 278.373 257.053 278.059 257.144 277.721C257.247 277.209 257.235 276.681 257.108 276.174C256.981 275.668 256.744 275.196 256.412 274.793C255.537 273.805 254.555 272.916 253.484 272.143C252.435 271.315 251.456 270.401 250.556 269.413C249.816 268.591 249.201 267.663 248.734 266.66C248.422 265.985 248.213 265.267 248.111 264.53C248.041 264.265 248.019 263.99 248.046 263.718Z" fill="#6F4439"/>
<path d="M267.81 274.639C267.584 274.58 267.369 274.486 267.173 274.361C266.777 274.163 266.214 273.863 265.518 273.475C264.135 272.707 262.246 271.594 260.211 270.298C258.579 269.266 257.1 268.271 255.929 267.451H256.068C255.014 267.773 254.15 268.029 253.543 268.183C253.231 268.294 252.906 268.368 252.577 268.402C252.864 268.239 253.168 268.109 253.484 268.015L255.973 267.143H256.039L256.105 267.187L260.409 269.962C262.451 271.257 264.311 272.399 265.657 273.226C266.403 273.653 267.122 274.124 267.81 274.639Z" fill="#6F4439"/>
<path d="M262.056 275.042C261.61 275.665 260.937 276.088 260.182 276.22C259.465 276.473 258.677 276.436 257.986 276.118C257.986 276.001 258.974 276.154 260.102 275.847C261.229 275.539 262.012 274.954 262.056 275.042Z" fill="#6F4439"/>
<path d="M258.154 277.428C258.786 278.811 259.298 280.246 259.684 281.717C259.844 282.334 259.771 282.988 259.479 283.555C259.245 284.067 258.996 284.477 258.821 284.843C258.648 285.241 258.518 285.655 258.433 286.08C258.304 285.63 258.354 285.148 258.572 284.733C258.718 284.338 258.96 283.906 259.157 283.416C259.402 282.918 259.459 282.349 259.318 281.813C258.813 280.385 258.423 278.919 258.154 277.428Z" fill="#6F4439"/>
<path d="M16.653 284.119L46.8846 251.493C46.8846 251.493 86.6615 183.19 94.5744 176.895C114.338 161.15 136.811 169.392 136.811 169.392L144.819 166.354L158.302 200.605C158.302 200.605 153.303 207.925 152.805 209.389C152.307 210.853 92.3418 301.584 92.3418 301.584L70.9235 331.596C70.9235 331.596 37.72 325.374 23.5045 307.242C17.0117 298.912 16.653 284.119 16.653 284.119Z" fill="#455A64"/>
<path d="M161.648 199.836L166.083 196.052L166.164 207.595L173.828 218.429C173.828 218.429 151.385 245.454 146.744 249.963C142.103 254.472 105.203 298.275 105.203 298.275C105.203 298.275 103.249 319.064 100.767 324.957C98.2856 330.849 81.5155 329.297 81.5155 329.297L89.8457 305.442L93.308 288.225L135.208 232.776L151.648 211.248L161.648 199.836Z" fill="#455A64"/>
<path d="M150.426 236.934C150.426 237.622 173.228 259.421 173.228 259.421C173.228 259.421 174.875 263.549 176.756 264.237C178.637 264.926 188.036 269.281 188.036 269.281L202.764 248.148C202.764 248.148 195.32 241.267 193.204 240.096C191.089 238.925 186.001 233.025 186.001 233.025L168.931 212.529L155.835 219.212L150.426 236.934Z" fill="#455A64"/>
<path d="M151.648 211.277C151.675 211.205 151.709 211.136 151.751 211.072L152.08 210.501C152.402 209.974 152.812 209.242 153.383 208.305C154.547 206.402 156.18 203.73 158.171 200.495L158.339 200.722L145.939 204.03L145.756 204.082L145.705 203.899C145.287 202.303 144.848 200.641 144.402 198.943C142.279 190.796 140.361 183.425 138.963 178.044L137.352 171.705L136.935 169.97C136.88 169.771 136.839 169.568 136.811 169.363C136.894 169.554 136.96 169.753 137.008 169.956C137.133 170.38 137.294 170.944 137.499 171.661C137.916 173.191 138.502 175.321 139.219 177.979C140.646 183.351 142.608 190.708 144.768 198.848C145.214 200.546 145.653 202.208 146.071 203.804L145.844 203.664L158.288 200.429L158.668 200.327L158.456 200.656C156.428 203.869 154.752 206.512 153.559 208.393L152.19 210.523L151.817 211.072C151.707 211.219 151.656 211.285 151.648 211.277Z" fill="#263238"/>
<path d="M166.164 207.156C166.044 207.297 165.909 207.425 165.761 207.537L164.576 208.532L160.293 212.009L159.986 212.258L160.03 211.863C160.264 209.667 160.535 207.098 160.828 204.353C160.916 203.555 161.003 202.764 161.084 202.01L161.406 202.164C158.771 204.667 156.436 206.856 154.759 208.415L152.761 210.238C152.538 210.471 152.293 210.682 152.029 210.867C152.228 210.603 152.451 210.358 152.695 210.135L154.606 208.232C156.245 206.622 158.544 204.396 161.194 201.886L161.567 201.527L161.508 202.039C161.428 202.771 161.34 203.584 161.252 204.389C160.945 207.127 160.652 209.689 160.403 211.892L160.14 211.746L164.532 208.371L165.776 207.449C165.894 207.337 166.024 207.239 166.164 207.156Z" fill="#263238"/>
<path d="M168.931 223.472C168.931 223.472 168.872 223.589 168.733 223.787C168.594 223.985 168.345 224.292 168.096 224.629C167.533 225.361 166.706 226.408 165.681 227.689C163.617 230.258 160.725 233.764 157.446 237.571C154.167 241.377 151.129 244.759 148.896 247.174C147.783 248.382 146.876 249.37 146.232 250.022L145.5 250.754C145.415 250.846 145.322 250.929 145.221 251.003C145.279 250.892 145.353 250.791 145.441 250.703L146.129 249.898L148.706 246.97C150.902 244.503 153.888 241.113 157.168 237.292C160.447 233.471 163.368 230.009 165.476 227.491L167.987 224.512L168.719 223.707C168.781 223.621 168.852 223.543 168.931 223.472Z" fill="#263238"/>
<path d="M192.165 240.257C192.004 240.555 191.815 240.837 191.601 241.099C191.22 241.633 190.649 242.387 189.932 243.295C188.468 245.132 186.44 247.614 184.017 250.22C181.595 252.826 179.267 255.065 177.539 256.632C176.676 257.415 175.965 258.037 175.46 258.455C175.212 258.684 174.945 258.892 174.663 259.077C174.88 258.808 175.125 258.562 175.395 258.345L177.386 256.434C179.062 254.817 181.346 252.562 183.769 249.963C186.192 247.365 188.263 244.913 189.756 243.127L191.513 241.004C191.707 240.735 191.925 240.485 192.165 240.257Z" fill="#263238"/>
<path d="M78.0971 322.307C78.0971 322.307 78.1556 322.197 78.2801 322.007L78.8291 321.158L80.9812 317.922L88.96 306.064C95.709 296.05 105.064 282.259 115.312 266.946C125.56 251.632 134.739 237.71 140.837 227.286C143.977 222.125 146.693 218.063 148.75 215.376C149.76 214.022 150.587 212.997 151.158 212.324L151.817 211.555C151.89 211.465 151.968 211.38 152.051 211.299L151.846 211.577L151.224 212.368C150.668 213.063 149.862 214.103 148.867 215.464C146.861 218.173 144.175 222.25 141.071 227.425C135.025 237.9 125.838 251.808 115.656 267.18C105.474 282.552 96.0164 296.262 89.2162 306.232L81.1642 318.025L78.9682 321.224L78.3826 322.051C78.1776 322.212 78.0971 322.307 78.0971 322.307Z" fill="#263238"/>
<path d="M79.788 285.97C79.788 285.97 79.6709 285.905 79.4732 285.751L78.6241 285.063C77.8921 284.462 76.8527 283.599 75.5863 282.442C73.0609 280.188 69.6571 276.96 66.0703 273.197C62.4835 269.435 59.4823 265.877 57.3815 263.198C56.3274 261.873 55.4929 260.782 54.9293 260.021C54.6731 259.662 54.4681 259.37 54.2924 259.135C54.1168 258.901 54.0802 258.821 54.0948 258.806C54.1916 258.89 54.2799 258.983 54.3583 259.084C54.5413 259.311 54.7682 259.589 55.0537 259.926L57.5938 263.03C59.7458 265.635 62.7983 269.178 66.3778 272.941C69.9572 276.703 73.2878 279.939 75.7693 282.237L78.6973 284.953C79.0121 285.253 79.2829 285.495 79.4952 285.685C79.6042 285.768 79.7026 285.864 79.788 285.97Z" fill="#263238"/>
<path d="M126.49 180.226C126.453 180.226 126.168 179.75 125.516 178.945C124.58 177.83 123.465 176.88 122.215 176.134C120.34 175.058 118.314 174.268 116.205 173.791C113.64 173.109 110.989 172.801 108.336 172.876C105.694 172.963 103.106 173.649 100.767 174.882C98.8683 175.91 97.1738 177.277 95.7676 178.915C94.8197 180.023 93.9996 181.233 93.3227 182.524C92.8395 183.439 92.5907 183.988 92.5907 183.988C92.6132 183.851 92.6551 183.718 92.7151 183.593C92.8176 183.337 92.9567 182.956 93.1909 182.488C94.5362 179.578 96.6663 177.102 99.3418 175.337C102.017 173.572 105.132 172.588 108.336 172.496C111.023 172.425 113.705 172.758 116.293 173.484C118.429 173.983 120.476 174.808 122.361 175.929C123.616 176.704 124.724 177.695 125.633 178.857C125.876 179.175 126.098 179.507 126.299 179.852C126.373 179.971 126.436 180.096 126.49 180.226Z" fill="#263238"/>
<path d="M89.8457 189.947C89.8457 189.947 88.5573 235.206 89.8457 256.654C90.2409 263.205 92.6712 267.531 93.1763 267.678C94.4939 268.066 121.065 265.818 121.065 265.818C121.065 265.818 121.278 257.701 123.261 254.648C125.245 251.596 120.129 252.877 120.129 252.877C120.129 252.877 131.109 197.091 129.732 186.821" fill="#455A64"/>
<path d="M129.754 186.821C129.754 186.821 129.828 187.26 129.886 188.102C129.945 188.944 129.937 190.196 129.842 191.813C129.688 195.049 129.198 199.755 128.378 205.633C126.775 217.397 123.986 233.874 120.326 252.913L120.099 252.701C120.776 252.537 121.468 252.446 122.163 252.43C122.528 252.417 122.893 252.469 123.24 252.584C123.432 252.651 123.604 252.767 123.737 252.921C123.87 253.095 123.937 253.31 123.928 253.528C123.88 253.902 123.747 254.26 123.54 254.575C123.357 254.89 123.196 255.161 123.042 255.468C122.758 256.094 122.528 256.743 122.354 257.408C121.687 260.166 121.316 262.988 121.248 265.826V265.994H121.08L109.8 266.924C106.528 267.173 103.3 267.414 100.108 267.656C98.5125 267.758 96.9314 267.861 95.3503 267.912C94.9624 267.912 94.5671 267.912 94.1718 267.912C93.9695 267.927 93.7665 267.927 93.5642 267.912H93.2495C93.169 267.912 92.9494 267.788 92.9128 267.722C92.4225 267.09 92.0233 266.393 91.7269 265.65C90.5556 262.819 89.8725 259.809 89.7066 256.749C89.6334 255.285 89.5602 253.821 89.487 252.357C89.4431 250.893 89.3918 249.429 89.3479 248.046C89.0698 236.67 89.143 226.43 89.2381 217.836C89.3333 209.242 89.5016 202.281 89.6261 197.479C89.6993 195.085 89.7578 193.219 89.7944 191.945C89.7944 191.323 89.8384 190.84 89.853 190.481C89.8676 190.122 89.853 189.991 89.853 189.991C89.853 189.991 89.853 190.159 89.853 190.481C89.853 190.803 89.853 191.301 89.853 191.945C89.853 193.226 89.8018 195.085 89.7578 197.479C89.6773 202.288 89.5602 209.242 89.4943 217.836C89.4284 226.43 89.3918 236.67 89.6846 248.031C89.7359 249.451 89.7798 250.893 89.831 252.342C89.8823 253.792 89.9774 255.27 90.0506 256.734C90.2148 259.755 90.8931 262.726 92.0563 265.518C92.3363 266.218 92.708 266.878 93.1616 267.48C93.1811 267.507 93.206 267.529 93.2348 267.546C93.2348 267.546 93.2348 267.546 93.3227 267.546H93.5862C93.7764 267.557 93.967 267.557 94.1572 267.546C94.5451 267.546 94.9331 267.546 95.3284 267.546C96.8948 267.487 98.476 267.385 100.072 267.283C103.256 267.078 106.484 266.836 109.756 266.587L121.073 265.672L120.897 265.855C120.97 262.99 121.348 260.141 122.024 257.357C122.213 256.669 122.458 255.998 122.756 255.351C123.127 254.799 123.413 254.194 123.606 253.558C123.612 253.423 123.571 253.29 123.489 253.183C123.408 253.076 123.291 253.001 123.159 252.972C122.854 252.875 122.535 252.83 122.215 252.84C121.549 252.856 120.886 252.942 120.238 253.096L119.967 253.162L120.019 252.884C123.679 233.852 126.555 217.389 128.217 205.648C129.044 199.792 129.571 195.078 129.762 191.85C129.879 190.239 129.879 188.988 129.864 188.146C129.864 187.729 129.82 187.414 129.813 187.194C129.806 186.975 129.754 186.821 129.754 186.821Z" fill="#263238"/>
<path d="M120.992 253.155C120.617 253.267 120.232 253.346 119.843 253.389C119.111 253.514 118.02 253.675 116.681 253.836C114.002 254.165 110.29 254.502 106.184 254.677C102.077 254.853 98.3442 254.839 95.6504 254.736C94.3036 254.685 93.2129 254.626 92.4662 254.56C92.0753 254.549 91.686 254.505 91.3024 254.429C91.692 254.394 92.0839 254.394 92.4736 254.429L95.6578 254.48C98.3442 254.516 102.063 254.48 106.169 254.311C110.276 254.143 113.972 253.843 116.652 253.579L119.821 253.257C120.208 253.193 120.6 253.159 120.992 253.155Z" fill="#263238"/>
<path d="M93.1763 267.678L108.797 333.455H124.425L120.055 266.009L93.1763 267.678Z" fill="#AE7461"/>
<path d="M123.035 324.152L138.612 326.875L152.629 331.113C153.932 331.559 154.759 332.306 154.24 333.938L108.797 333.455V325.557L123.035 324.152Z" fill="#AE7461"/>
<path d="M147.952 333.873C147.968 333.575 147.968 333.277 147.952 332.98C147.866 332.587 147.677 332.225 147.404 331.93C147.131 331.636 146.785 331.419 146.4 331.303C145.227 331.012 144.028 330.843 142.821 330.798L138.363 330.344C135.2 330.008 132.338 329.685 130.267 329.437L127.815 329.115C127.511 329.094 127.212 329.037 126.921 328.946C127.223 328.917 127.527 328.917 127.829 328.946L130.296 329.144C132.368 329.327 135.237 329.612 138.399 329.942L142.857 330.425L144.804 330.652C145.383 330.696 145.953 330.825 146.495 331.032C146.903 331.178 147.263 331.432 147.537 331.767C147.81 332.103 147.987 332.507 148.047 332.936C148.072 333.165 148.06 333.398 148.01 333.624C148.001 333.709 147.981 333.792 147.952 333.873Z" fill="#6F4439"/>
<g opacity="0.3">
<path opacity="0.3" d="M120.992 279.888L126.49 255.9V248.39L124.425 247.072L129.257 197.867L120.15 252.877L121.248 252.782C122.5 252.679 124.059 252.386 123.759 253.601L122.046 257.364L120.143 267.326L120.992 279.888Z" fill="black"/>
</g>
<path d="M172.569 164.129C170.834 165.945 170.322 168.558 171.764 170.615C172.359 171.378 173.233 171.874 174.193 171.995C175.153 172.115 176.122 171.851 176.888 171.259C177.7 170.576 178.335 169.707 178.74 168.726C177.049 167.379 174.275 165.476 172.569 164.129Z" fill="#6F4439"/>
<path d="M176.339 171.691C176.117 171.832 175.867 171.925 175.607 171.961C174.899 172.087 174.171 172.018 173.499 171.764C172.482 171.38 171.656 170.613 171.2 169.626C170.922 169.029 170.771 168.38 170.756 167.721C170.741 167.063 170.862 166.408 171.112 165.798C171.362 165.154 171.724 164.559 172.181 164.041L172.291 163.917L172.43 164.019C174.209 165.337 175.761 166.501 176.822 167.35C177.429 167.776 178.004 168.245 178.542 168.755C177.891 168.401 177.269 167.995 176.683 167.54C175.548 166.75 173.967 165.622 172.181 164.319H172.43C172.005 164.806 171.668 165.364 171.434 165.966C171.204 166.53 171.09 167.135 171.1 167.744C171.11 168.353 171.244 168.953 171.493 169.509C171.897 170.428 172.638 171.157 173.565 171.544C174.193 171.808 174.877 171.911 175.556 171.844C176.068 171.756 176.324 171.661 176.339 171.691Z" fill="#263238"/>
</svg>
