<svg xmlns="http://www.w3.org/2000/svg" viewBox="0 0 435.71 108.09"><defs><style>.cls-1{fill:#e30613;}.cls-1,.cls-2,.cls-3{fill-rule:evenodd;}.cls-2{fill:#c6c6c6;}.cls-3{fill:#1d1d1b;}</style></defs><g id="Camada_2" data-name="Camada 2"><g id="Camada_1-2" data-name="Camada 1"><path class="cls-1" d="M399.27,36.78c7.57-13.9,33.65-16.34,30.88-11L428.39,27l.25,1.28c1.43.67,2.15,1.73,1.71,2.79-.79,1.9-4.14,4.16-5.52,6.66-5.47,9.93,9.15,2.78,10.11.13.49.51.85.89.76,2.92A87.07,87.07,0,0,1,423.09,50c-2.47.6-4.5.51-5.55-1.09-1.62-3-.22-5.95,2-8.93.38-.88,0-1.28-1-1.2C411.7,46.16,401.4,55.55,399,40.63l.26-3.85Zm17.19-6A34.51,34.51,0,0,0,407,36.07c-3.13,2.61-3,4.49-2.55,5.9C406.22,47.39,421,31.1,423,30.17c1.6-2.06-5.8.38-6.49.64Z"/><path class="cls-1" d="M294.82,38.73s-3.74,3.3-6.91,6.14c-9.38,8.43-14.67-.52-12.21-8.4,1.28-4.12,6.73-7.17,12.27-9.62,9.16-4,18.12-6.3,18.65-1.93l.13,1.45a3,3,0,0,1-2.24.69.9.9,0,0,0,.39,1.45l1.26.19c-.54,7-19.71,26,9.49,5.14-4-.88-1.41-5.44,1.93-8.73s8.42-5.22,7.35-.68l3.83,0c7.82-2.5,8.89-.68,9,5.05-2.13.35-16.44,15.7-2.63,11.48a59.22,59.22,0,0,0,16.08-13.06L345,28c0-1.9,1.7-4.85,6-7.39,1.56-.28,4-.12,6.25-1.44,2-1.16,3.43-4,5-5,2.37-1.43,5.35-1.68,5.32.67,0,.92-1.71,2.69-2.45,4.42l4.07.09a19.28,19.28,0,0,1-4.67,8.1c-2.62.49-4.92.24-7.11.62-6.82,8.87-8,14.22-5.69,15.52s7.76-1.31,14-6.24c4-12.82,17.89-26.45,29.06-34.12,16.5-2.43-22.23,31.65-24.45,33.49,0,2.87.76,3.18,1.91,2.34a49.83,49.83,0,0,1,17.6-12.62c3.67-1.52,5,.29,5.34,3.6l-7.91,9.65c-1.15,6.07,10.64-2,12-2.9L399,40.63c-3.07,2-16.77,13.41-19.38,6.24-1.09-4.21,2.64-8.41,6.79-12.62.43-1.06-.17-1.28-.92-1.38L369.81,47.46c-4.07,3.17-4.46-5.48-3.95-6.83-4,2.46-18.56,15.32-23.14,7.41-1.15-2,.17-5.41,1.42-7.84.81-1.58,2.1-3.09.63-3.17-3.93,3.62-15.47,16.39-21.68,10.47-2.44-2-2.16-6.37-.41-8.79s4.65-5,4.87-6.27l-4.27.33c-3.6,0-7.16,4.45-9.67,6.57-3.74,3.18-8.31,7.61-12.49,9.4-6.63,2.83-11.23,1.17-4.91-9.06.05-1-.27-1.48-1.39-1Zm-3.08-1c16.67-12.07,0-8-7.18-2.32-3.22,2.53-7,7-2.68,7.6,2.42.33,6.15-2.59,9.86-5.28Z"/><path class="cls-1" d="M131,25c-9-5.79-29.23,9.87-22.11,20.18,4.76,6.91,12.45-2.56,15.79-5.32-1.53,15.59,10,8.7,19.35,1.26.74,5.68,3.37,8.82,8.79,8.27,6.44-.08,12.88-4.48,18-8.83l-.58-2.25a33.81,33.81,0,0,1-13.77,5.33c-3.75.2-7-1.54-4.39-5.75,8.47.82,26.23-15,11-16.26-7.79,1.45-18.28,7.53-19.21,16-5.84,2.79-11,6-12.48,4.67-1.17-2.22-.86-5.41,1.23-9.77l14.5-21.17-1.9-5L131,25Zm31.48.84c-3.82,0-10,4.53-9.66,8.55,5.67-1.47,10.84-5.36,9.66-8.55Zm-34.26,3.5c-14,2.31-17.78,12.17-13.37,11.78,2.31-.2,6.75-2,13.37-11.78Z"/><path class="cls-1" d="M201.54,3.2c-6.13,2.28-9.1,8.47-9.79,12.16-1.11,6,2.23,5.78,6.95,3.51,9-4.33,23.05-16.19,20.7-6.81l-7.23,13.25L198.34,41.7q0,4.94,5.08,7.82C217.61,36.55,226.59,20,239.14,11c1.26.36,1.82,1.18.85,3-6.8,9.8-13.35,18.74-19.64,26.74q-2.47,4.72.53,8.27c2.36,4.31,8.43-3.72,15.81-12.39,7.05-8.28,16.78-15.71,19.12-18,1.55-.48,1.67.07,1.58.76l-13.9,20.63c-1.28,4.45-.33,8.27,3.88,11.16,6.61,4.19,23-11.84,26.63-15.67l-1.52-3c-2.25,2.44-14.24,15.36-18,11.17-5.59-7.15,16-27.61,19.4-33.11,4.53-7.24.21-12.79-13.71-1.78A236.6,236.6,0,0,0,241.84,25c-2.35.86,8.37-15.24,9.22-18.17.8-4.64-1.26-6.81-7.51-5.36-7.4,4.16-13.43,10.18-19.11,16.66-4.92,5.73,1.46-7.68,1.56-8.13,3-13.38-9.1-11.89-24.43-2.22-1.32.23-2.11.1-1.71-.82L203,4.41c.56-1.06,0-1.74-1.42-1.21Z"/><path class="cls-1" d="M102,21.66c1.32,1.13,3.85.48,5.65-1.45s2.2-4.4.89-5.53-3.85-.48-5.66,1.45-2.2,4.41-.88,5.53Z"/><path class="cls-1" d="M99.52,23.82c-5.46,1.37-10.28,4.59-13.32,12.9-3.32,17.93,13,12.87,21.09,3.79L107,37.66c-3.9,2.86-8,5.88-11.23,5-10.68-2.74,4.69-8.65,6.56-15.09,1.1-2.53.3-3.88-2.79-3.79Z"/><path class="cls-1" d="M76.24,22.28C43.71,26.57,56.33,60,74.92,44.56a11.62,11.62,0,0,0,10.4-4.33l.29-2c-2.73,1.05-5.34,1.87-7.1,1.06,1.72-3.37,3.25-6.25,2.79-11.7C79.77,28,79,27.47,79,26.07L80.63,25c.48-2.19-1.76-2.56-4.39-2.67ZM72.29,30l.57,1.13c-3.54,3.63-4.64,7.2-2.19,10.65C59.35,49.12,57.19,35.39,72.29,30Z"/><path class="cls-1" d="M50.94,43.17A185.18,185.18,0,0,0,22.5,37.7c8.25-9,44.9-50.19,17.28-13.32l.14,4.77,2,.56a22.71,22.71,0,0,0,8.93-7,1.14,1.14,0,0,0-.25-2l8-13.18c.31-3.24.44-6.39-1.9-7.24S51.3.65,49.22,2.51C35,12.82,26.29,25.67,16.78,37.56L6.68,38.82,0,46.53v2l5.36.42c2.47-3.74,10.17-2.37,19.48-1.12,6.65,1.48,12.32,3,18.74,2.4a29.75,29.75,0,0,0,7.36-7Z"/><path class="cls-2" d="M.24,66.48c112.32-4.38,218-4.46,330.11,2,38.44,2.23,75,5.94,92.16,5.56,11.65-.26,14.84-4.17-1.06-10.87-21.32-6.48-140.26-9.83-213.61-8.49-72,.2-141.08,3.92-207.36,9.42L.36,65.32.24,66.48Z"/><path class="cls-3" d="M402.94,95.62H391.85c0,.17,0,.3,0,.38a3.45,3.45,0,0,0,.93,2.52,3,3,0,0,0,2.27,1,3.78,3.78,0,0,0,3.43-2.18l4,.63a8,8,0,0,1-3.09,3.43A8.36,8.36,0,0,1,395,102.5a7.41,7.41,0,0,1-5.36-2,7,7,0,0,1-2.06-5.27,9.35,9.35,0,0,1,1.86-5.72,8.53,8.53,0,0,1,7.25-3.38,6.45,6.45,0,0,1,4.78,1.77,6.74,6.74,0,0,1,1.77,5,11,11,0,0,1-.31,2.75Zm-3.72-2.57c0-.19,0-.33,0-.43a3.62,3.62,0,0,0-.82-2.6,2.84,2.84,0,0,0-2.18-.87,3.55,3.55,0,0,0-2.46,1,5.23,5.23,0,0,0-1.47,2.92Z"/><path class="cls-3" d="M382.86,102.13h-4.19l.38-1.69a8.36,8.36,0,0,1-2.37,1.58,6.8,6.8,0,0,1-2.62.48,5.44,5.44,0,0,1-4.12-1.66A6.83,6.83,0,0,1,368.36,96a11.2,11.2,0,0,1,2.22-6.79,6.93,6.93,0,0,1,5.87-3,5.52,5.52,0,0,1,4.94,2.5l1.77-8.08h4.42l-4.72,21.58Zm-10.2-6.36a3.68,3.68,0,0,0,.88,2.62,2.87,2.87,0,0,0,2.18.94,3.65,3.65,0,0,0,2.24-.78,5.41,5.41,0,0,0,1.66-2.41,8.54,8.54,0,0,0,.63-3.11,3.87,3.87,0,0,0-1-2.73,2.91,2.91,0,0,0-2.2-1,3.68,3.68,0,0,0-3.19,2.06,8.46,8.46,0,0,0-1.24,4.46Z"/><path class="cls-3" d="M356.46,90.92l-4.31-.35a6.19,6.19,0,0,1,2.58-3.26,8.89,8.89,0,0,1,4.87-1.18,7.39,7.39,0,0,1,4.67,1.21,3.69,3.69,0,0,1,1.5,3,9,9,0,0,1-.13,1.5c-.08.53-.39,1.92-.91,4.18a20.69,20.69,0,0,0-.65,3.92,7.67,7.67,0,0,0,.37,2.22h-4.29a7.48,7.48,0,0,1-.33-1.77,6.64,6.64,0,0,1-2.23,1.58,6.11,6.11,0,0,1-2.54.56,4.68,4.68,0,0,1-3.36-1.27A4.35,4.35,0,0,1,350.38,98a4.68,4.68,0,0,1,1.45-3.58Q353.3,93,357,92.75a20.7,20.7,0,0,0,4.22-.6,5.23,5.23,0,0,0,.28-1.41A1.45,1.45,0,0,0,361,89.6a2.7,2.7,0,0,0-1.7-.45,3.3,3.3,0,0,0-1.87.46,2.33,2.33,0,0,0-.93,1.31Zm4.21,3.92a9.83,9.83,0,0,1-1.07.19,10.37,10.37,0,0,0-4.34,1.13,1.66,1.66,0,0,0-.72,1.42,1.6,1.6,0,0,0,.55,1.24,2.08,2.08,0,0,0,1.46.51,4,4,0,0,0,1.89-.46,3.27,3.27,0,0,0,1.32-1.19,7.89,7.89,0,0,0,.78-2.28l.13-.56Z"/><path class="cls-3" d="M346.07,102.13h-4.19l.37-1.69a8.32,8.32,0,0,1-2.36,1.58,6.81,6.81,0,0,1-2.63.48,5.43,5.43,0,0,1-4.11-1.66A6.79,6.79,0,0,1,331.57,96a11.26,11.26,0,0,1,2.21-6.79,6.94,6.94,0,0,1,5.87-3,5.51,5.51,0,0,1,4.94,2.5l1.77-8.08h4.42l-4.71,21.58Zm-10.21-6.36a3.68,3.68,0,0,0,.89,2.62,2.85,2.85,0,0,0,2.18.94,3.63,3.63,0,0,0,2.23-.78,5.35,5.35,0,0,0,1.67-2.41,8.52,8.52,0,0,0,.62-3.11,3.91,3.91,0,0,0-.95-2.73,2.91,2.91,0,0,0-2.2-1,3.67,3.67,0,0,0-3.19,2.06,8.46,8.46,0,0,0-1.25,4.46Z"/><polygon class="cls-3" points="325.63 86.5 330.04 86.5 326.63 102.13 322.2 102.13 325.63 86.5 325.63 86.5"/><polygon class="cls-3" points="313.41 102.13 318.14 80.55 322.55 80.55 317.83 102.13 313.41 102.13 313.41 102.13"/><path class="cls-3" d="M302.15,90.92l-4.32-.35a6.29,6.29,0,0,1,2.58-3.26,8.93,8.93,0,0,1,4.88-1.18A7.36,7.36,0,0,1,310,87.34a3.68,3.68,0,0,1,1.51,3,9,9,0,0,1-.13,1.5c-.09.53-.39,1.92-.92,4.18a20.43,20.43,0,0,0-.64,3.92,7.67,7.67,0,0,0,.37,2.22h-4.3a8,8,0,0,1-.32-1.77,6.64,6.64,0,0,1-2.23,1.58,6.14,6.14,0,0,1-2.54.56,4.68,4.68,0,0,1-3.36-1.27A4.35,4.35,0,0,1,296.07,98a4.64,4.64,0,0,1,1.45-3.58c1-.89,2.71-1.43,5.2-1.62a20.82,20.82,0,0,0,4.22-.6,5.14,5.14,0,0,0,.27-1.41,1.42,1.42,0,0,0-.57-1.14,2.68,2.68,0,0,0-1.69-.45,3.27,3.27,0,0,0-1.87.46,2.28,2.28,0,0,0-.93,1.31Zm4.2,3.92a9.16,9.16,0,0,1-1.06.19c-2.22.26-3.67.63-4.34,1.13a1.64,1.64,0,0,0-.72,1.42,1.6,1.6,0,0,0,.55,1.24,2,2,0,0,0,1.46.51,4,4,0,0,0,1.88-.46,3.24,3.24,0,0,0,1.33-1.19,8.21,8.21,0,0,0,.78-2.28l.12-.56Z"/><path class="cls-3" d="M280,86.5h4.42l-2,9.25a13.61,13.61,0,0,0-.37,2.08,1.55,1.55,0,0,0,.52,1.16,1.89,1.89,0,0,0,1.34.49,3.35,3.35,0,0,0,1.16-.21,5.31,5.31,0,0,0,1.17-.65,5.93,5.93,0,0,0,1.07-1,6.29,6.29,0,0,0,.9-1.47,13.57,13.57,0,0,0,.63-2.22l1.63-7.44h4.42l-3.42,15.63h-4.12l.46-2.12a8.56,8.56,0,0,1-5.9,2.49,4.43,4.43,0,0,1-3.17-1.1,3.92,3.92,0,0,1-1.15-3,18.9,18.9,0,0,1,.52-3.23L280,86.5Z"/><path class="cls-3" d="M271.78,86.5h4.06l-4.71,21.59h-4.42l1.58-7.29a8.71,8.71,0,0,1-2.19,1.31,6.89,6.89,0,0,1-2.35.39,5.46,5.46,0,0,1-4.17-1.67A6.78,6.78,0,0,1,258,96a11.88,11.88,0,0,1,1.06-4.9A8.5,8.5,0,0,1,262,87.42a7.1,7.1,0,0,1,4.08-1.29A5.42,5.42,0,0,1,271.23,89l.55-2.46Zm-9.51,9.42a3.44,3.44,0,0,0,.9,2.5,2.86,2.86,0,0,0,2.15.93,3.72,3.72,0,0,0,2.17-.73,5,5,0,0,0,1.7-2.41,8.78,8.78,0,0,0,.66-3.22,3.82,3.82,0,0,0-.94-2.75,2.9,2.9,0,0,0-2.17-1,3.46,3.46,0,0,0-2.07.77,5.38,5.38,0,0,0-1.73,2.52,9.4,9.4,0,0,0-.67,3.38Z"/><path class="cls-3" d="M223.88,86.5H228l-.41,1.9a7.46,7.46,0,0,1,5.11-2.27,4.69,4.69,0,0,1,2.85.74,3.27,3.27,0,0,1,1.28,2,6.3,6.3,0,0,1,2.43-2,7.13,7.13,0,0,1,3.29-.8,4.33,4.33,0,0,1,3,1,3.43,3.43,0,0,1,1.1,2.65,15.6,15.6,0,0,1-.44,2.8l-2.09,9.55h-4.42l2.1-9.55c.25-1.2.38-1.88.38-2a1.34,1.34,0,0,0-.41-1,1.75,1.75,0,0,0-1.22-.37,3.69,3.69,0,0,0-2.94,1.66,10.89,10.89,0,0,0-1.6,4.22l-1.56,7.1h-4.42l2.07-9.45a13.82,13.82,0,0,0,.35-2.12,1.31,1.31,0,0,0-.44-1,1.74,1.74,0,0,0-1.21-.39,3.11,3.11,0,0,0-1.49.41A4.27,4.27,0,0,0,228,90.69a6.74,6.74,0,0,0-1,1.86q-.18.53-.6,2.4l-1.57,7.18h-4.42l3.42-15.63Z"/><path class="cls-3" d="M202,95.64a9.36,9.36,0,0,1,2.57-6.92,9.06,9.06,0,0,1,6.74-2.59A8,8,0,0,1,216.94,88a6.71,6.71,0,0,1,2,5.13,9.36,9.36,0,0,1-2.55,6.56,8.76,8.76,0,0,1-6.8,2.77,9.08,9.08,0,0,1-4.09-.89,6,6,0,0,1-2.67-2.5,7.24,7.24,0,0,1-.88-3.47Zm12.6-3a3.12,3.12,0,0,0-3.28-3.31,4.05,4.05,0,0,0-2.54.85A5.39,5.39,0,0,0,207,92.61a8.45,8.45,0,0,0-.62,3,3.67,3.67,0,0,0,1,2.67,3.2,3.2,0,0,0,2.4,1,3.82,3.82,0,0,0,3.05-1.49,7.77,7.77,0,0,0,1.75-5.12Z"/><path class="cls-3" d="M194.89,96.24l4.29.66a8.59,8.59,0,0,1-3.14,4.17,8.3,8.3,0,0,1-4.82,1.43,6.82,6.82,0,0,1-4.95-1.78,6.55,6.55,0,0,1-1.84-4.91A11,11,0,0,1,185.54,91a8.33,8.33,0,0,1,3.34-3.57,9.56,9.56,0,0,1,4.9-1.3,7,7,0,0,1,4.62,1.44,5.41,5.41,0,0,1,1.94,3.8l-4.2.42a3,3,0,0,0-.84-1.92,2.59,2.59,0,0,0-1.8-.62,3.64,3.64,0,0,0-2.38.91,5.68,5.68,0,0,0-1.7,2.74,10.85,10.85,0,0,0-.6,3.4,3,3,0,0,0,.71,2.14,2.35,2.35,0,0,0,1.77.74,3.36,3.36,0,0,0,2-.73,4.75,4.75,0,0,0,1.54-2.21Z"/><path class="cls-3" d="M156.43,95.64A9.39,9.39,0,0,1,159,88.72a9.06,9.06,0,0,1,6.74-2.59A7.94,7.94,0,0,1,171.38,88a6.67,6.67,0,0,1,2,5.13,9.35,9.35,0,0,1-2.54,6.56,8.76,8.76,0,0,1-6.8,2.77,9.15,9.15,0,0,1-4.1-.89,6,6,0,0,1-2.66-2.5,7.24,7.24,0,0,1-.88-3.47Zm12.6-3a3.12,3.12,0,0,0-3.28-3.31,4.08,4.08,0,0,0-2.55.85,5.47,5.47,0,0,0-1.72,2.45,8.42,8.42,0,0,0-.61,3,3.71,3.71,0,0,0,.95,2.67,3.23,3.23,0,0,0,2.4,1,3.82,3.82,0,0,0,3.05-1.49A7.73,7.73,0,0,0,169,92.62Z"/><path class="cls-3" d="M151.63,102.13h-4.19l.37-1.69a8.32,8.32,0,0,1-2.36,1.58,6.85,6.85,0,0,1-2.63.48,5.43,5.43,0,0,1-4.11-1.66A6.79,6.79,0,0,1,137.13,96a11.19,11.19,0,0,1,2.21-6.79,6.94,6.94,0,0,1,5.87-3,5.51,5.51,0,0,1,4.94,2.5l1.77-8.08h4.42l-4.71,21.58Zm-10.21-6.36a3.68,3.68,0,0,0,.89,2.62,2.85,2.85,0,0,0,2.18.94,3.68,3.68,0,0,0,2.24-.78,5.41,5.41,0,0,0,1.66-2.41A8.52,8.52,0,0,0,149,93a3.91,3.91,0,0,0-.95-2.73,2.91,2.91,0,0,0-2.2-1,3.68,3.68,0,0,0-3.19,2.06,8.46,8.46,0,0,0-1.25,4.46Z"/><path class="cls-3" d="M120.74,86.5h4.19l-.43,2a11.77,11.77,0,0,1,2.93-1.85,7.57,7.57,0,0,1,2.88-.55,4.47,4.47,0,0,1,3.18,1.1,3.89,3.89,0,0,1,1.16,2.93,17.57,17.57,0,0,1-.51,3.12l-1.92,8.85H127.8l1.93-8.88a19,19,0,0,0,.44-2.36,1.66,1.66,0,0,0-.5-1.28,2,2,0,0,0-1.4-.46,4.09,4.09,0,0,0-2.15.77A5.73,5.73,0,0,0,124.25,92a17.51,17.51,0,0,0-1.1,3.72l-1.4,6.42h-4.42l3.41-15.63Z"/><path class="cls-3" d="M106,90.92l-4.32-.35a6.29,6.29,0,0,1,2.58-3.26,8.93,8.93,0,0,1,4.88-1.18,7.36,7.36,0,0,1,4.66,1.21,3.68,3.68,0,0,1,1.51,3,9,9,0,0,1-.13,1.5c-.09.53-.39,1.92-.92,4.18a20.43,20.43,0,0,0-.64,3.92,7.67,7.67,0,0,0,.37,2.22h-4.3a8,8,0,0,1-.32-1.77,6.64,6.64,0,0,1-2.23,1.58,6.15,6.15,0,0,1-2.55.56,4.67,4.67,0,0,1-3.35-1.27A4.35,4.35,0,0,1,99.89,98a4.64,4.64,0,0,1,1.45-3.58q1.45-1.34,5.19-1.62a20.83,20.83,0,0,0,4.23-.6,5.14,5.14,0,0,0,.27-1.41,1.42,1.42,0,0,0-.57-1.14,2.68,2.68,0,0,0-1.69-.45,3.27,3.27,0,0,0-1.87.46,2.28,2.28,0,0,0-.93,1.31Zm4.2,3.92a9.58,9.58,0,0,1-1.06.19,10.38,10.38,0,0,0-4.35,1.13,1.66,1.66,0,0,0-.72,1.42,1.61,1.61,0,0,0,.56,1.24,2,2,0,0,0,1.46.51,4,4,0,0,0,1.88-.46,3.24,3.24,0,0,0,1.33-1.19,8.21,8.21,0,0,0,.78-2.28l.12-.56Z"/><path class="cls-3" d="M93.28,96.24l4.3.66a8.67,8.67,0,0,1-3.15,4.17,8.3,8.3,0,0,1-4.82,1.43,6.82,6.82,0,0,1-5-1.78,6.55,6.55,0,0,1-1.84-4.91A11,11,0,0,1,83.93,91a8.36,8.36,0,0,1,3.35-3.57,9.49,9.49,0,0,1,4.89-1.3,7,7,0,0,1,4.62,1.44,5.38,5.38,0,0,1,1.94,3.8l-4.2.42a3,3,0,0,0-.84-1.92,2.58,2.58,0,0,0-1.79-.62,3.67,3.67,0,0,0-2.39.91,5.68,5.68,0,0,0-1.7,2.74,10.85,10.85,0,0,0-.6,3.4,3,3,0,0,0,.71,2.14,2.37,2.37,0,0,0,1.77.74,3.36,3.36,0,0,0,2-.73,4.75,4.75,0,0,0,1.54-2.21Z"/><path class="cls-3" d="M66.33,86.5h4.41l-2,9.25a14.22,14.22,0,0,0-.38,2.08A1.53,1.53,0,0,0,68.88,99a1.86,1.86,0,0,0,1.34.49,3.29,3.29,0,0,0,1.15-.21,5.31,5.31,0,0,0,1.17-.65,6,6,0,0,0,1.08-1,6.28,6.28,0,0,0,.89-1.47,12.62,12.62,0,0,0,.63-2.22l1.64-7.44H81.2l-3.42,15.63H73.65l.46-2.12a8.56,8.56,0,0,1-5.89,2.49,4.4,4.4,0,0,1-3.17-1.1,3.92,3.92,0,0,1-1.16-3,18.9,18.9,0,0,1,.52-3.23l1.92-8.71Z"/><path class="cls-3" d="M58.78,102.13H54.59l.37-1.69A8.32,8.32,0,0,1,52.6,102a6.81,6.81,0,0,1-2.63.48,5.43,5.43,0,0,1-4.11-1.66A6.83,6.83,0,0,1,44.28,96a11.26,11.26,0,0,1,2.21-6.79,6.94,6.94,0,0,1,5.87-3,5.51,5.51,0,0,1,4.94,2.5l1.77-8.08h4.42l-4.71,21.58ZM48.57,95.77a3.68,3.68,0,0,0,.89,2.62,2.85,2.85,0,0,0,2.18.94,3.63,3.63,0,0,0,2.23-.78,5.35,5.35,0,0,0,1.67-2.41A8.52,8.52,0,0,0,56.16,93a3.87,3.87,0,0,0-.95-2.73,2.91,2.91,0,0,0-2.2-1,3.68,3.68,0,0,0-3.19,2.06,8.46,8.46,0,0,0-1.25,4.46Z"/><polygon class="cls-3" points="326.92 80.55 331.34 80.55 330.5 84.38 326.09 84.38 326.92 80.55 326.92 80.55"/><polygon class="cls-3" points="22.12 102.44 26.81 80.97 43.45 80.97 42.67 84.56 30.65 84.56 29.58 89.43 41.2 89.43 40.42 93.02 28.8 93.02 27.39 98.85 40.45 98.85 39.66 102.44 22.12 102.44 22.12 102.44"/></g></g></svg>