<svg xmlns="http://www.w3.org/2000/svg" width="86.044" height="54.989" viewBox="0 0 86.044 54.989"><g data-name="UNOi Educação - Logo"><path data-name="Caminho 15" d="M48.449 47.802a2.078 2.078 0 0 0-1.668.714 2.842 2.842 0 0 0-.609 1.907 2.634 2.634 0 0 0 .629 1.852 2.2 2.2 0 0 0 1.716.687 2.734 2.734 0 0 0 1.265-.291c.378-.193.568-.4.568-.632a.482.482 0 0 0-.145-.325.431.431 0 0 0-.323-.16.613.613 0 0 0-.308.105 2.617 2.617 0 0 1-.509.264 1.666 1.666 0 0 1-.528.068 1.189 1.189 0 0 1-.853-.3 1.524 1.524 0 0 1-.411-.9h2.658a.592.592 0 0 0 .47-.174.831.831 0 0 0 .153-.558 2.318 2.318 0 0 0-.576-1.637 1.981 1.981 0 0 0-1.529-.62zm-1.16 2.055a1.348 1.348 0 0 1 .4-.795 1.083 1.083 0 0 1 .764-.285.932.932 0 0 1 .708.294 1.238 1.238 0 0 1 .315.786z" fill="#4d575d"/><path data-name="Caminho 16" d="M55.137 45.562a.636.636 0 0 0-.42.109.423.423 0 0 0-.126.339v2.435a1.248 1.248 0 0 0-.507-.474 1.561 1.561 0 0 0-.73-.169 1.841 1.841 0 0 0-1.512.7 2.9 2.9 0 0 0-.563 1.872 3 3 0 0 0 .543 1.888 1.72 1.72 0 0 0 1.431.7 1.406 1.406 0 0 0 1.338-.7v.261q0 .419.555.419a.577.577 0 0 0 .4-.107.452.452 0 0 0 .112-.34v-6.488a.441.441 0 0 0-.118-.339.6.6 0 0 0-.403-.106zm-.546 5.222a1.312 1.312 0 0 1-.289.861.963.963 0 0 1-.782.347 1 1 0 0 1-.852-.43 2.411 2.411 0 0 1 0-2.353.986.986 0 0 1 .856-.432.974.974 0 0 1 .778.342 1.29 1.29 0 0 1 .293.866z" fill="#4d575d"/><path data-name="Caminho 17" d="M60.351 47.82c-.365 0-.547.151-.547.448v2.34a1.586 1.586 0 0 1-.291 1.025.98.98 0 0 1-.808.359.824.824 0 0 1-.661-.276 1.071 1.071 0 0 1-.242-.736v-2.712a.426.426 0 0 0-.124-.342.634.634 0 0 0-.414-.106c-.358 0-.537.151-.537.448v2.835a1.951 1.951 0 0 0 .453 1.358 1.527 1.527 0 0 0 1.194.5 1.569 1.569 0 0 0 1.432-.775v.319a.411.411 0 0 0 .124.333.626.626 0 0 0 .4.1.666.666 0 0 0 .421-.1.41.41 0 0 0 .125-.333v-4.238a.426.426 0 0 0-.124-.34.609.609 0 0 0-.401-.107z" fill="#4d575d"/><path data-name="Caminho 18" d="M65.375 51.503a.689.689 0 0 0-.384.158 1.456 1.456 0 0 1-.908.332 1.069 1.069 0 0 1-.886-.439 2.236 2.236 0 0 1-.01-2.357 1.087 1.087 0 0 1 .9-.418 1.4 1.4 0 0 1 .9.318.632.632 0 0 0 .409.177.47.47 0 0 0 .345-.168.5.5 0 0 0 .16-.347c0-.222-.179-.437-.533-.644a2.432 2.432 0 0 0-1.251-.312 2.206 2.206 0 0 0-1.693.689 2.654 2.654 0 0 0-.643 1.884 2.714 2.714 0 0 0 .637 1.869 2.1 2.1 0 0 0 1.652.718 2.524 2.524 0 0 0 1.308-.315c.355-.212.533-.43.533-.655a.466.466 0 0 0-.16-.327.5.5 0 0 0-.376-.163z" fill="#4d575d"/><path data-name="Caminho 19" d="M70.182 47.821c-.364 0-.548.15-.548.448v.177a1.38 1.38 0 0 0-1.235-.643 1.839 1.839 0 0 0-1.512.7 2.9 2.9 0 0 0-.563 1.872 3 3 0 0 0 .542 1.888 1.724 1.724 0 0 0 1.432.7 1.394 1.394 0 0 0 1.336-.718v.28c0 .279.177.419.527.419a.653.653 0 0 0 .429-.1.449.449 0 0 0 .115-.343v-4.229a.423.423 0 0 0-.125-.34.6.6 0 0 0-.398-.111zm-.548 2.964a1.305 1.305 0 0 1-.288.861.964.964 0 0 1-.781.347.992.992 0 0 1-.851-.425 2.417 2.417 0 0 1-.005-2.358.985.985 0 0 1 .856-.432.973.973 0 0 1 .777.342 1.293 1.293 0 0 1 .292.866z" fill="#4d575d"/><path data-name="Caminho 20" d="M75.209 51.503a.7.7 0 0 0-.4.156 1.463 1.463 0 0 1-.911.333 1.07 1.07 0 0 1-.884-.44 2.219 2.219 0 0 1-.009-2.356 1.083 1.083 0 0 1 .893-.419 1.4 1.4 0 0 1 .9.319.6.6 0 0 0 .395.166.51.51 0 0 0 .37-.147.475.475 0 0 0 .148-.347c0-.229-.178-.446-.535-.654a2.441 2.441 0 0 0-1.248-.311 2.209 2.209 0 0 0-1.694.689 2.656 2.656 0 0 0-.643 1.884 2.83 2.83 0 0 0 .522 1.732 2.029 2.029 0 0 0 1.415.827l-.152.233a.591.591 0 0 0-.138.314q0 .243.261.242h.314c.224 0 .338.1.338.295a.309.309 0 0 1-.1.229.357.357 0 0 1-.252.09 1.081 1.081 0 0 1-.334-.053.919.919 0 0 0-.233-.052.24.24 0 0 0-.2.115.42.42 0 0 0-.082.252c0 .114.074.209.222.285a1.486 1.486 0 0 0 .659.115 1.12 1.12 0 0 0 .818-.293.968.968 0 0 0 .3-.72.782.782 0 0 0-.191-.568.722.722 0 0 0-.546-.2 1.039 1.039 0 0 0-.2.019l.1-.276a2.272 2.272 0 0 0 1.12-.335c.32-.2.479-.41.479-.626a.476.476 0 0 0-.147-.338.494.494 0 0 0-.355-.16z" fill="#4d575d"/><path data-name="Caminho 21" d="M77.243 46.983a.408.408 0 0 0 .286-.147 1.487 1.487 0 0 1 .223-.2.378.378 0 0 1 .209-.051 1.124 1.124 0 0 1 .49.194 1.248 1.248 0 0 0 .651.2 1.038 1.038 0 0 0 .71-.262.743.743 0 0 0 .295-.547.344.344 0 0 0-.112-.271.4.4 0 0 0-.278-.1.3.3 0 0 0-.262.175.369.369 0 0 1-.315.2.433.433 0 0 1-.173-.035 3.365 3.365 0 0 1-.3-.16 1.454 1.454 0 0 0-.738-.195 1.138 1.138 0 0 0-.717.252.7.7 0 0 0-.324.538.41.41 0 0 0 .11.288.319.319 0 0 0 .245.121z" fill="#4d575d"/><path data-name="Caminho 22" d="M80 47.821q-.547 0-.547.448v.177a1.381 1.381 0 0 0-1.237-.643 1.84 1.84 0 0 0-1.512.7 2.909 2.909 0 0 0-.563 1.872 3.012 3.012 0 0 0 .541 1.888 1.725 1.725 0 0 0 1.433.7 1.4 1.4 0 0 0 1.337-.718v.28q0 .419.528.419a.657.657 0 0 0 .429-.1.453.453 0 0 0 .113-.343v-4.229a.422.422 0 0 0-.124-.34.6.6 0 0 0-.398-.111zm-.547 2.964a1.311 1.311 0 0 1-.288.861.964.964 0 0 1-.783.347.994.994 0 0 1-.85-.425 2.412 2.412 0 0 1 0-2.358.984.984 0 0 1 .855-.432.974.974 0 0 1 .778.342 1.291 1.291 0 0 1 .293.866z" fill="#4d575d"/><path data-name="Caminho 23" d="M85.427 48.506a2.154 2.154 0 0 0-1.7-.7 2.117 2.117 0 0 0-1.687.709 2.73 2.73 0 0 0-.619 1.865 2.765 2.765 0 0 0 .62 1.868 2.111 2.111 0 0 0 1.686.72 2.141 2.141 0 0 0 1.7-.714 3.136 3.136 0 0 0 .005-3.744zm-.781 3.059a1.071 1.071 0 0 1-.923.427 1.048 1.048 0 0 1-.906-.452 1.973 1.973 0 0 1-.32-1.165 1.936 1.936 0 0 1 .317-1.161 1.054 1.054 0 0 1 .91-.437 1.1 1.1 0 0 1 .927.4 1.935 1.935 0 0 1 .31 1.2 1.969 1.969 0 0 1-.315 1.188z" fill="#4d575d"/><path data-name="Caminho 24" d="M73.94 4.75A4.748 4.748 0 1 1 69.192.002 4.749 4.749 0 0 1 73.94 4.75" fill="#ffa800"/><path data-name="Caminho 25" d="M85 9.288a13.756 13.756 0 0 0-.9-2.039c0-.006-.007-.012-.01-.017a12.624 12.624 0 0 0-.452-.766 12.408 12.408 0 0 0-1.7-2.1 12.823 12.823 0 0 0-2.628-1.993A16.729 16.729 0 0 0 73.07.292a25.911 25.911 0 0 0-3.46-.276h-.147a4.744 4.744 0 1 1-.268-.008h-.054c-.472 0-.931.011-1.384.034h-.045a24.27 24.27 0 0 0-1.326.1.5.5 0 0 1-.053 0c-.386.041-.762.091-1.134.148-.07.012-.143.02-.213.033-.381.061-.754.132-1.116.209l-.159.038c-.3.069-.605.143-.9.225l-.29.083c-.326.1-.648.2-.962.308-.06.022-.12.049-.184.07q-.382.144-.75.3a18.926 18.926 0 0 0-1.083.51c-.072.039-.141.078-.215.117-.224.124-.447.251-.66.385-.1.056-.187.118-.281.179-.212.136-.416.278-.617.425l-.22.162c-.205.161-.4.323-.6.493-.082.073-.164.145-.244.22-.169.156-.333.315-.494.477-.056.057-.114.11-.166.17a11.106 11.106 0 0 0-.751.889c-.131.173-.26.347-.383.525-.051.073-.1.147-.156.221-.157.234-.3.475-.443.72-.058.1-.111.205-.167.31l-.116.227c-.054.107-.11.213-.164.324l-.062.13c-.012.029-.028.056-.039.084s-.03.058-.046.088c-.1.234-.2.469-.29.709-.025.063-.043.127-.066.188-.08.217-.155.436-.225.661-.03.094-.057.189-.087.285-.033.122-.07.24-.1.362-.055.221-.111.444-.161.669-.009.034-.014.07-.021.1-.047.216-.088.434-.128.657l-.017.105c-.038.234-.074.469-.1.708v.043a34.4 34.4 0 0 0-.093 5.745c.59 6.753 4.057 15.337 9.229 20.6.258.247.516.476.777.691 1.1.146 2.562-1.388 2.266-10.971 0-.084-.007-.169-.007-.255V14.023a4.526 4.526 0 0 1 9.052 0v14.485a4.525 4.525 0 0 1-7.781 3.142c.333 3.04.438 7.449-1.312 9.566a10.758 10.758 0 0 0 4.415 1.2c6.123.331 16.374-2.27 16.861-14l.012-7.38V15.19A17.925 17.925 0 0 0 85 9.288z" fill="#005b7e"/><path data-name="Caminho 26" d="M22.623 1.525c-1.161 0-1.513 1.687-1.519 2.887-.016 3.013-.033 24.062-.033 24.062 0 .043-.009.086-.01.131v.085c0 .279-.055 6.792-3.868 10.867a8.942 8.942 0 0 1-4.323 2.6 26.043 26.043 0 0 0 3.25.249c.16 0 .306.016.464.016.28 0 .556 0 .831-.014.338-.01.665-.032.995-.054 7.046-.464 11.814-3.6 13.766-8.926l.043-.107a.826.826 0 0 0 .073-.209 15.934 15.934 0 0 0 .653-2.69l.028-.186c.024-.162.044-.324.065-.49.015-.131.03-.263.042-.4 0-.049.008-.1.012-.143.051-.587.168-10.066.168-10.066a105.081 105.081 0 0 0-5.929-13.112c-.986-1.66-2.96-4.5-4.708-4.5z" fill="#005b7e"/><path data-name="Caminho 27" d="M51.998 26.821c-2.82-5.895-5.418-11.572-9.08-19.157C39.347.684 34.851.021 34.851.021L31.342.016h-1.548s-3.909.015-5.51.015-1.813.382-1.813.382c2.841.149 4.088 1.653 5.985 4.29 2.747 3.819 15.17 30.3 15.242 30.446 1.3 2.531 2.066 4.349 3.225 5.494a5.249 5.249 0 0 0 3.147 1.681h10.728a4.028 4.028 0 0 0 2.094-.423c-3.24-1.949-5.607-4.734-10.894-15.08z" fill="#005b7e"/><path data-name="Caminho 28" d="M18.046 32.539c-2.039 1.133-6.025-.265-6.037-4.617l.048-1.891v-.124l-.009-7.15V2.651a2.8 2.8 0 0 0-.079-.654A2.862 2.862 0 0 0 9.255.034H2.861A2.881 2.881 0 0 0-.005 2.855l.007 24.588v.145c.047 6.328 2.775 10.838 7.724 13.12a13.707 13.707 0 0 0 1.7.555c7.62.492 8.519-8.124 8.62-8.724z" fill="#005b7e"/></g></svg>